<svg xmlns="http://www.w3.org/2000/svg" width="1200" height="1200" viewBox="0 0 1200 1200"><path d="M166.8,537.6c23.9,8.6,44.6,17.7,60.6,37.9a16.4,16.4,0,0,1,2.6,4.2,16.2,16.2,0,0,1,.7,4.4c.1,4.1-1.6,8.1-1.5,12s-.5,1.9,2,5.3c4.7,6.5,10.3,11.7,11.3,20.2a13.5,13.5,0,0,1-.9,6.9c-2,4.2-8.5,11.7-13.4,10.4,1.9,8.4,11.7,10.6,8.2,21.8-1.8,5.9-6.1,10.7-10.5,15.1-12.2,12.5-26.6,24.5-44,26.9a94.3,94.3,0,0,1-16.8.4c-9.2-.4-18.5-.7-27.3-3.5s-17-8-21.1-16.1c-3.3-6.4-3.7-13.9-3.9-21.1-.2-4.8,1-13-1.5-17.1s-7.1-5.7-9.5-9.4a22.8,22.8,0,0,1-3.3-18.1c.4-1.6,10.9-21,12.7-19.3-.1-.1-16.8-16.4-1.9-32.1S151.9,532.3,166.8,537.6Z" fill="#b36362"/><path d="M125.7,598.2a38,38,0,0,1,21.6-6.9,47.2,47.2,0,0,1,11.8,1.6l2.6.7,2.6.7,5.3,1.2c7.1,1.4,14.4,2.6,21.6,3.9l21.7,3.7h-1.5a58.6,58.6,0,0,0,6.3-1.2,16,16,0,0,0,5.1-1.8,4,4,0,0,0,1.4-1.1,3.2,3.2,0,0,0,.8-1.4,12.2,12.2,0,0,0,.6-5c0-2.1-.1-4.3-.3-6.5a18.8,18.8,0,0,0-.4-2.8,12.9,12.9,0,0,0-.8-2.6,29.9,29.9,0,0,0-6.6-9.7,67,67,0,0,0-9.8-8.3,105.6,105.6,0,0,0-11.2-7,216.4,216.4,0,0,0-24.3-11.6l-6.4-2.4-.7-.3-.5-.2-1.3-.3-2.7-.2a35.5,35.5,0,0,0-12,2.6,99.5,99.5,0,0,0-23,13.1,120.5,120.5,0,0,0-10.4,8.5l-2.4,2.3-1.2,1.2-1,1.1a18.1,18.1,0,0,0-3.3,5,15.7,15.7,0,0,0-.7,11.5,26.3,26.3,0,0,0,2.4,5.8c.6.9,1.1,1.8,1.8,2.7l1.9,2.4h0l1.7,1.4-1.8,1.9a42.9,42.9,0,0,0-9.4,13.8,23.3,23.3,0,0,0-1.8,7.7,18,18,0,0,0,1.1,7.3c1.8,4.6,5.6,8.6,10,11.8a72.4,72.4,0,0,0,14.8,8l-.6-.2,4.3,1.1,4.5.8a90.6,90.6,0,0,0,9.1,1.3,108.7,108.7,0,0,0,18,.6,82.7,82.7,0,0,0,8.7-1l2.1-.5,2.1-.5,2.1-.5,1-.3,1.2-.4c6.2-2,12.2-3.6,18.2-5.4a158.2,158.2,0,0,0,17.2-5.9c5.5-2.2,10.7-4.9,14.6-8.3a14.9,14.9,0,0,0,4.1-5.2,12.9,12.9,0,0,0,.9-5.9l-.3-1.8a11.6,11.6,0,0,0-.4-1.8,13.3,13.3,0,0,0-.5-1.9,15.9,15.9,0,0,1-.7-2c-1-2.7-2.3-5.4-3.5-8.4l3.3-3a31.3,31.3,0,0,1,7.9,6.7,21.1,21.1,0,0,1,3.1,4.5,24.3,24.3,0,0,1,2.2,5.5,21.8,21.8,0,0,1,.7,6.3,23,23,0,0,1-1.5,6.4,27.3,27.3,0,0,1-7,9.8,46.2,46.2,0,0,1-8.8,6.3,77.9,77.9,0,0,1-9.2,4.5,171.3,171.3,0,0,1-18.7,6.3c-6.1,1.7-12.4,3.2-18.3,4.8l-1.1.3-1.2.3-2.6.6-2.5.5-2.6.4a85.9,85.9,0,0,1-10.1.8,130,130,0,0,1-19.8-1.4c-3.2-.5-6.5-1.1-9.6-1.9l-4.8-1.1c-1.6-.4-3.2-.8-4.9-1.4h-.5a80.7,80.7,0,0,1-16.3-9.9,47.1,47.1,0,0,1-7-7.1,27.9,27.9,0,0,1-4.8-9.2,23.1,23.1,0,0,1-.9-10.4,30.1,30.1,0,0,1,3.1-9.6,40.1,40.1,0,0,1,5.4-8,39.3,39.3,0,0,1,6.9-6.6l-.2,3.3h0c-1-1-1.7-1.9-2.5-2.8a27.3,27.3,0,0,1-2.1-3,26.8,26.8,0,0,1-3.3-6.8,21.3,21.3,0,0,1,.3-15.3,27.7,27.7,0,0,1,4-6.6l1.2-1.4,1.2-1.3,2.5-2.6a133.1,133.1,0,0,1,10.6-9.3,104.1,104.1,0,0,1,11.5-8.2,86,86,0,0,1,12.8-6.6,43.5,43.5,0,0,1,14.6-3.6,29.7,29.7,0,0,1,4.2.3l2.1.4,1,.3,1,.3,6.5,2.4a224.4,224.4,0,0,1,25.6,11.4c8.3,4.5,16.5,9.6,23.6,16.6a39.9,39.9,0,0,1,8.8,12.9,26.4,26.4,0,0,1,1.2,4,21.6,21.6,0,0,1,.6,4,55.8,55.8,0,0,1,.5,7.3,24.5,24.5,0,0,1-1.1,8.5,13.8,13.8,0,0,1-2.7,4.5,13.1,13.1,0,0,1-3.9,3.2,31.2,31.2,0,0,1-7.7,3c-2.5.6-4.9.9-7.3,1.3h-1.5c-7.4-1.2-14.7-2.7-21.9-4.3s-14.5-3.4-21.7-5.7l-5.4-1.7-2.8-1-2.6-1.1a46.9,46.9,0,0,0-9.9-2.8A48.6,48.6,0,0,0,125.7,598.2Z" fill="#4d1329"/><path d="M116.3,648.9a8.1,8.1,0,0,1,.5,3.3c-.1,1-.4,2-.6,3s-.6,4.1-.7,6.1-.1,4,0,6a36.8,36.8,0,0,0,.8,5.8,25.8,25.8,0,0,0,12.6,17.6,39.6,39.6,0,0,0,10.9,4.1l1.5.3,1.5.2,3,.5,6.3.8a131.7,131.7,0,0,0,25.1.2,71.3,71.3,0,0,0,12.1-2.1,60.1,60.1,0,0,0,11.2-4.2,54.2,54.2,0,0,0,10.1-6.5l2.3-2,2.3-2,4.9-4.5c3.2-2.9,6.5-5.7,9.4-8.6s5.2-5.8,5.4-8.2a7.1,7.1,0,0,0-.2-2,6.1,6.1,0,0,0-.3-1.3,5.6,5.6,0,0,0-.4-1.2,18.3,18.3,0,0,0-2.4-4.6,22.3,22.3,0,0,0-3.8-3.7l-2.4-1.4-2.6-1.2.3-3.8a23.8,23.8,0,0,1,3.8.1l1.8.4,1.8.6a20.4,20.4,0,0,1,6.5,4.1,21.5,21.5,0,0,1,4.4,6.4,13.4,13.4,0,0,1,.7,1.8l.3.9.3,1a16,16,0,0,1,.4,4.4,8.5,8.5,0,0,1-.3,2.3,12.9,12.9,0,0,1-.6,2.1,12.1,12.1,0,0,1-.9,2,9.5,9.5,0,0,1-1,1.7,38.1,38.1,0,0,1-4.6,5.7c-3.2,3.3-6.4,6.2-9.5,9.2l-4.7,4.4a27.3,27.3,0,0,1-2.5,2.3l-2.6,2.2a60.7,60.7,0,0,1-11.7,7.7,69,69,0,0,1-13.1,4.9,90.4,90.4,0,0,1-13.5,2.2,134,134,0,0,1-26.9-.4c-8.6-.9-18.3-2.2-26.7-7.2a34.9,34.9,0,0,1-10.9-10.1l-.5-.7-.5-.8-.9-1.7-.8-1.6c-.2-.6-.5-1.2-.7-1.7l-.6-1.8-.5-1.7a12.1,12.1,0,0,1-.5-1.8l-.3-1.8a44.5,44.5,0,0,1-.2-14.1,49.6,49.6,0,0,1,1.3-6.7,15.9,15.9,0,0,1,.9-3.3,7.3,7.3,0,0,1,2.4-2.9Z" fill="#4d1329"/><path d="M273.5,538.8c-1.1-.6-2.4-1.1-3.5-1.8s-4.7-3.5-7.2-5.1-5.5-2.6-8.3-1.6c-4.9,1.9-3.9,9.5-4.6,13.7a78.6,78.6,0,0,1-4.5,17.3,136,136,0,0,0-8.4,28.6c-1.1,6.6-1.2,13.8,2.3,19.4,5.2,8.4,17.2,10.5,26.2,6.5s15.1-12.7,18.6-21.9c5.1-13.6,5.6-29.1-.3-42.6-1.5-3.5-5.5-9.4-8.8-11.7A5.3,5.3,0,0,0,273.5,538.8Z" fill="#b36362"/><path d="M253.5,526.1c7,4,14.7,7.7,22,12.7a48.1,48.1,0,0,1,10.1,9.1,31.1,31.1,0,0,1,6.3,12.9,34.9,34.9,0,0,1,.7,7.1,53.5,53.5,0,0,1-.7,7l-2.5,12.2a129.4,129.4,0,0,1-3.2,12.6,35.6,35.6,0,0,1-2.8,6.4,26.1,26.1,0,0,1-4.6,5.9,30.2,30.2,0,0,1-6.1,4.2,35.6,35.6,0,0,1-6.6,2.5c-2.2.6-4.3,1-6.5,1.4a37.5,37.5,0,0,1-6.9.7,24.5,24.5,0,0,1-7.4-1.3,15.2,15.2,0,0,1-6.6-4.6,18.9,18.9,0,0,1-3.7-6.6,36.2,36.2,0,0,1-1.3-6.9c-.5-9.1,1.5-17.4,3.9-25.5a143,143,0,0,1,9.5-23.2c-2.1,8-4.1,16.1-5.5,24.2q-1,6-1.5,12a51.5,51.5,0,0,0,.3,11.8c.5,3.7,1.7,7.2,3.8,9.2a8.9,8.9,0,0,0,3.7,2.3,18,18,0,0,0,4.8.6l2.6-.3,1.4-.2,1.4-.3a47.5,47.5,0,0,0,5.7-1.4,22.6,22.6,0,0,0,9.1-4.8c4.7-4.4,6.3-12.5,8.1-20.4l2.5-12.2a33.3,33.3,0,0,0,.7-5.4,29.6,29.6,0,0,0-.5-5.2,21.6,21.6,0,0,0-4.7-9.3,37.1,37.1,0,0,0-8.4-7.2c-6.5-4.3-14.1-7.5-21.7-11.2Z" fill="#4d1329"/><path d="M939.7,603.3a92.8,92.8,0,0,0-6.5-15.1c-1.2-2.4-2.5-4.7-4-7.1a4.1,4.1,0,0,0-.5-.9h0v-4.2a53.6,53.6,0,0,0,1.4-5.4c.4-2.1.7-4.1.9-6.1a47.7,47.7,0,0,0-.3-12.5,31.4,31.4,0,0,0-4.9-12.2l-3.4-4.6-3.3-4.7c-4.5-6.3-9-12.8-14.6-18.7a36.1,36.1,0,0,0-10-7.9l-1.6-.8-2-.6a16.1,16.1,0,0,0-3.7-.4,32.2,32.2,0,0,0-6.4.7,74.5,74.5,0,0,0-11.7,3.1c-3.8,1.2-7.4,2.6-11.1,4.1-7.2,2.9-14.3,6.1-21.4,9.4l-5.2,2.5-2.6,1.2-1.3.6-.7.3-.3.2-.4.2a28.9,28.9,0,0,0-9.9,8.7,55.6,55.6,0,0,0-6.3,10.7,53.7,53.7,0,0,0-2.1,5.6,40.2,40.2,0,0,0-1.4,6h0l-.3,1.5.7,1.1,5.4,7.9,3,4,.8.9a33.2,33.2,0,0,0-9.8,6.4,33.8,33.8,0,0,0-5.6,7,30.5,30.5,0,0,0-2.1,4,18,18,0,0,0-.8,2.1l-.4,1v.2h0l-.3,3.1h0c.2.8.4,1.4.6,2l.7,2c.4,1.2.9,2.5,1.4,3.7a71.4,71.4,0,0,0,3.7,7.3,60.1,60.1,0,0,0,4.8,6.8,29.3,29.3,0,0,0,6.4,5.7,23.1,23.1,0,0,0,7.2,3.1l-2.2,3.8a21.7,21.7,0,0,0-2.3,11.2c.1.5.1,1,.2,1.5l.4,1.5.2.8c.1.2.1.4.2.6l.6,1.4a19.6,19.6,0,0,0,1.3,2.5l1.5,2.3a35.5,35.5,0,0,0,7.6,7.4,50.3,50.3,0,0,0,8.9,5.4,51.5,51.5,0,0,0,9.8,3.4,25.8,25.8,0,0,0,5.3.7c1.6.2,3.3.2,4.9.3h9.8c6.4-.1,12.9-.6,19.3-1.2a144.2,144.2,0,0,0,19.3-3.3,39.7,39.7,0,0,0,4.9-1.5,28.7,28.7,0,0,0,5.1-2.3,10.1,10.1,0,0,0,1.3-.9l.7-.6.3-.3.2-.2,1.7-1.6,3.4-3.3a48.5,48.5,0,0,0,6.9-7.8,13.5,13.5,0,0,0,2.2-5.9,11,11,0,0,0-.5-4.8,123,123,0,0,0,6.3-13.2q.8-1.8,1.5-3.9l.3-1,.2-.5a1.9,1.9,0,0,1,.2-.7,13.2,13.2,0,0,0,.2-2.7A29.3,29.3,0,0,0,939.7,603.3Zm-13.5-24.9h0Zm-.7-.1h0Zm.6,6.9Zm-.3.1h-1.1m-.1,0-.5-.2Z" fill="#b36362"/><path d="M939.7,603.3a108.8,108.8,0,0,0-11-23.1c1.7-16.5,6.4-31-6.4-45.1-8.6-11.5-15.8-25.4-29.5-32.1-19.7-3.4-38.5,9.3-56.3,16.3l-7.8,3.7c-13.3,5.9-20.4,20.2-22.7,33.8a152,152,0,0,0,9.9,13.9c-8.9,3.6-15.8,11.6-18.8,20.7h0c-.4,12.1,12.1,31.1,24.5,33.7-11.6,15.8,1.2,31.6,16.4,38.4s32.9,4,49.1,3.1c11.3-1.8,25-1.9,33.5-10.7,5.5-5.7,15-12.5,12-21.8C937.4,624.8,944.3,613.8,939.7,603.3Zm-13.5-24.9h0Zm-.7-.1h0Zm.6,6.9Zm-.1,0h0Zm-1-6.9h0Zm-.4,6.9-.5-.2Zm9.6,28.1c-2.2,7-5.7,13.7-9.3,20.2,4.2,7.2-5.1,12.1-9.5,16.9-7.5,7.2-19.3,6.7-29.1,8.3-12.1,1-24.7,2-36.8.4-14.6-3-33.7-18-19.9-33,25.6,2.4,51.3,1.1,76.9-.8-27.2-3.3-55.2-3.9-82.4-6.8-10.6-3-15.4-15.1-17.9-25a24,24,0,0,1,5.5-10.9c10.5-11.8,27.9-8.6,42.1-10.6,31.4-3.2,29.9-5,59,8.8-8.3-6.7-17.1-14.1-27.7-16.6-9.5-1-22.4,1.2-31.9,2s-20.9.2-31.3,2.5l.4-1.1c.1,0,.3,0,.3.1-3.7-3.4-6.6-7.9-9.7-12,4.5-11.1,9.7-23.1,21.7-27,16.8-7.5,34-17.1,52.5-19,12.6,1.7,22.9,22.5,30.9,32.1s6.9,22.2,3.6,33c0,1.9,0,3.8.1,5.7a5.8,5.8,0,0,0,.6,2.9C927.7,592.2,934.1,602.9,934.2,613.3Z" fill="#4d1329"/></svg>