<svg xmlns="http://www.w3.org/2000/svg" xmlns:xlink="http://www.w3.org/1999/xlink" width="1200" height="1200" viewBox="0 0 1200 1200"><defs><clipPath id="a"><path d="M498.5,948.9l1.8,65.4s30.8,14.5,15.4,39-169.7,8.2-193.3-6.3-18.2-43.6,12.7-117.1" fill="#b36362"/></clipPath><clipPath id="b"><path d="M601.9,866.3l6.4,59s-156.1,5.5-241.5-15.4-95.3-31.8-95.3-31.8l13.6-49.9" fill="#c16d2d" stroke="#501b2b" stroke-miterlimit="10" stroke-width="9.58"/></clipPath><clipPath id="c"><path d="M613.7,864.5l21.8,60.8s69-7.2,98.1-37.2l-9.1-54.9" fill="#c16d2d" stroke="#501b2b" stroke-miterlimit="10" stroke-width="9.58"/></clipPath><clipPath id="d"><path d="M724.5,833.2s-96.8,82.1-439.4-1.4c0,0-12.7-45.4,6.7-53.8S724.5,833.2,724.5,833.2Z" fill="#ddd2cc" stroke="#501b2b" stroke-miterlimit="10" stroke-width="9.58"/></clipPath><clipPath id="e"><path d="M745.7,776.8S648.2,828.2,296,744.7l26.4,43.6S532,885.4,730.5,828.2A270.6,270.6,0,0,0,745.7,776.8Z" fill="#ddd2cc" stroke="#501b2b" stroke-miterlimit="10" stroke-width="9.58"/></clipPath><clipPath id="f"><path d="M700.9,540.8s-3.7,20.5,30.2,79.8c15.1,26.4,32.9,52.3,42.7,81.2,3.7,10.7,6.2,22.4,4.1,33.7s-9.2,20.2-18.4,26.6a179.4,179.4,0,0,1-30.4,16.6c-7.8,3.3-15.2,5.9-23.7,6.9s-17.6.9-25.9,3.5a13.5,13.5,0,0,0-3.8,1.9,27.1,27.1,0,0,1-6.5,4l-21.8,9c-20.6,8.6-42.5,17.3-64.7,14.2-15.9-2.2-30.8-10.5-46.9-11.4-14-.8-27.5,4.8-41.4,3.9-4-.3-7.7-1.7-11.6-2.3a39.7,39.7,0,0,0-7.7-.1c-5.6.4-10.9.7-16.4-.1-8.6-1.4-16.8-4.5-24.9-7.5l-1.9-.7a171.3,171.3,0,0,0-42.4-9.5c-28.2-3-56.9-1.5-84.8-7.5-20.9-4.6-43.2-14.3-55.5-32.7-15.9-23.8-6.3-53-2.4-79a417.5,417.5,0,0,1,35.3-116" fill="#c16d2d" stroke="#501b2b" stroke-miterlimit="10" stroke-width="11.98"/></clipPath><clipPath id="g"><path d="M674.2,454.8l37.6,26.6s-18.2,92-129.5,116.2S345,491.1,330.5,468.1l30.3-31.4S547.2,603.7,674.2,454.8Z" fill="#cf8f2b"/></clipPath><clipPath id="h"><ellipse cx="633.4" cy="728.7" rx="23.3" ry="35.4" transform="translate(-81.4 79.7) rotate(-6.8)" fill="#ddd2cc" stroke="#501b2b" stroke-miterlimit="10" stroke-width="4.79"/></clipPath></defs><path d="M117.2,953a24.8,24.8,0,0,1,5.4-.6l16.2-19.2c-12.3-3.8-24.6-7.3-37-10.6C203.4,880.8,237,723.8,237,723.8l306.8-74.4L570.2,1037l-22.5.3c-59.4.7-118.8,3-178.1,3.1-29.7,0-54-.6-83.6,1.6-8,.6-64.5-.8-65.6-12.7l-1.2.4,3.7-26.2-3.4.2c-12.9.9-25.4,4.5-38.2,5.5-24.4,1.9-50.3-4.6-65.3-25.3C109.9,975.6,101.3,956.5,117.2,953Z" fill="#ac1f27"/><path d="M117.2,953a24.8,24.8,0,0,1,5.4-.6l.5-.5c9.2.3,20,3.3,27.8,5.2,14.7,3.7,57.5,10.9,58.9,10.4s80.3-114.8,80.3-114.8l52.7,10.4,12.7,60-25.9,114.3-5.4,3c-12.3.2-24.7.6-38.2,1.6-7.4.6-56.4-.6-64.4-10.2l20-18.9,38.1-134.8S223,997.5,202.1,1004.3c-8.3,2.7-24.1,4-40.1,4.5-17.9-2.1-34.9-9.7-46-24.9C109.9,975.6,101.3,956.5,117.2,953Z" fill="#821a24"/><path d="M160.8,880.8s60.8,24.3,72.6,54.3l-9.1,12.7s-22.7-47.9-75.3-56.1" fill="#cf8f2b"/><path d="M241.7,724.8c-1.2,5.3-2.5,10.3-3.9,15.4s-2.9,10-4.5,15c-3.2,10-6.7,19.9-10.6,29.6s-8.1,19.4-12.7,28.8-9.6,18.7-15.1,27.7l-4.1,6.7c-1.5,2.2-2.8,4.4-4.4,6.6l-4.5,6.5-4.7,6.3L176,869l-1.2,1.6-2.5,3-2.5,3.1-2.7,3c-1.7,2-3.4,4-5.3,5.9l-5.5,5.7a199.3,199.3,0,0,1-24.5,20.4A167,167,0,0,1,103.6,927l-.6-9c7.7,2,15.5,4.2,23.1,6.4l11.5,3.5,11.4,3.5c7.5,2.2,15.3,4.2,23,6.7a128.9,128.9,0,0,1,23,9.3,61.4,61.4,0,0,1,10.7,7.3l2.4,2.4a12.5,12.5,0,0,1,2.6,3.5,8.6,8.6,0,0,1,.8,3.5,7.1,7.1,0,0,1-1.2,3.8,8,8,0,0,1-2.5,2.4,10,10,0,0,1-2.5,1,13.1,13.1,0,0,1-4.3.6h-3.3l-6.2-.8c-4-.6-8-1.4-12-2.2-7.9-1.8-15.6-3.9-23.3-5.8l-5.7-1.3-5.9-1.4c-3.9-1-7.7-1.9-11.4-2.6a60.4,60.4,0,0,0-11-.9l-2.5.2-2.4.5-2,.8a7.1,7.1,0,0,0-1.4,1l-.5.6a4.3,4.3,0,0,0-.4.7,4.9,4.9,0,0,0-.6,1.7,13.7,13.7,0,0,0,.1,4.5,36.9,36.9,0,0,0,3.7,10,35.8,35.8,0,0,0,2.9,4.6,18.4,18.4,0,0,0,1.7,2.2l1.7,2.2c1.3,1.3,2.5,2.7,3.9,3.9s1.3,1.3,2.1,1.9l2.2,1.7,2.2,1.6,2.4,1.5c1.6.9,3.2,1.9,4.9,2.7a80.1,80.1,0,0,0,10.6,4.1c1.8.4,3.6,1,5.5,1.3l2.8.6,2.9.4,2.8.4,2.9.2,2.9.2h8.6a56.7,56.7,0,0,0,5.8-.5c3.8-.4,7.7-1.1,11.6-1.8l11.8-2.2,6.1-.9,3-.4,3-.3c3.9-.4,8.1-1,12.8-.5l1.8.3a7.7,7.7,0,0,1,1.9.5,11.1,11.1,0,0,1,3.9,2,11.9,11.9,0,0,1,3.1,3.2l.6,1.2a6.9,6.9,0,0,1,.5,1.3,7.8,7.8,0,0,1,.2,1.6,3.8,3.8,0,0,1,0,1.5,9.6,9.6,0,0,1-2,4.9,19.2,19.2,0,0,1-2.7,2.9,42,42,0,0,1-5.5,3.8l-5.4,3.1-2.4,1.3-.9.7-.4.2h-.2v.2l-.2.3a.9.9,0,0,0-.3.5c-.1.2,0-.2-.1-.4s0,0,.3.3a7.4,7.4,0,0,0,1.6,1,24.5,24.5,0,0,0,4.6,1.9,42.6,42.6,0,0,0,5.4,1.5,172.2,172.2,0,0,0,23,3.4,231,231,0,0,0,23.4,1.3h2.8l3-.2,6-.3,12-.5q12-.4,24-.6c16-.1,31.9.1,47.8-.1,31.8-.3,63.6-1.2,95.5-2.1s63.8-1.6,95.6-2l-4.7,5.1L552.1,843.5l-6.6-96.9-6.4-96.9,9.5-.6,6.7,96.8,6.6,96.9,13,193.8.4,5.1h-5.1l-47.7.5-47.8.9c-31.9.5-63.7,1.1-95.7,1.1-15.9.1-31.9-.1-47.7-.1-8,.1-15.9.2-23.8.5l-11.9.6-5.9.5-2.9.2h-3.2c-8.2.2-16.2-.1-24.3-.6-4.1-.2-8.1-.6-12.2-1s-8.1-1.1-12.2-2a51.5,51.5,0,0,1-6.2-1.6,28,28,0,0,1-6.3-2.6,17,17,0,0,1-3.4-2.3,10.5,10.5,0,0,1-3.4-6.3v-1.6a8.2,8.2,0,0,1,.8-2.9,11.4,11.4,0,0,1,1.2-2.2,2.7,2.7,0,0,1,.7-.8l.3-.4.2-.2.2-.3.6-.5.4-.4.9-.6,1.5-1,2.8-1.5,5.2-2.8a30.3,30.3,0,0,0,4.4-2.8l1.4-1.3c.3-.4.4-.7.4-.6s.1.3,0,0-.5-.7-1-1.2a8.8,8.8,0,0,0-3.4-1.3,43.3,43.3,0,0,0-5.3-.3l-5.8.2-3,.2-2.8.2-5.8.7c-3.9.5-7.8,1.2-11.8,1.9s-7.9,1.3-12,1.8l-6.1.5-3.1.2h-3.1a88.4,88.4,0,0,1-24.5-2.9,70,70,0,0,1-11.9-4.2c-1.9-.8-3.8-1.9-5.6-2.8s-1.8-1.2-2.7-1.7-1.8-1.1-2.7-1.8l-2.5-1.9-2.4-2.1c-1.7-1.4-3.1-3-4.6-4.5l-2-2.5a24.3,24.3,0,0,1-2-2.5,63.7,63.7,0,0,1-3.5-5.5,44.1,44.1,0,0,1-4.6-12.3,20.3,20.3,0,0,1-.1-7.4,13.4,13.4,0,0,1,3.7-7.5,13.6,13.6,0,0,1,3.4-2.5,17.8,17.8,0,0,1,3.6-1.4,28.3,28.3,0,0,1,6.8-1.1,66.6,66.6,0,0,1,12.8.9c4.1.7,8.1,1.7,12,2.6l5.7,1.3,5.9,1.3c7.9,1.9,15.5,3.9,23.2,5.6,3.8.8,7.6,1.5,11.4,2l5.8.7h2.6l1.6-.2h.3l-.4.4a1.9,1.9,0,0,0-.3,1,1.5,1.5,0,0,0,.1.6,5.1,5.1,0,0,0-1-1.1l-1.9-1.9a56.9,56.9,0,0,0-9-6.1,122.4,122.4,0,0,0-21.4-8.5c-7.4-2.3-15.1-4.2-22.8-6.5l-11.5-3.5-11.4-3.3c-7.6-2.3-15.3-4.4-22.9-6.4L87,923.7l13-5.5a163.6,163.6,0,0,0,26.3-14.4,179.3,179.3,0,0,0,23.2-19.4l5.3-5.4c1.7-1.8,3.4-3.8,5.1-5.7l2.5-2.8,2.4-3,2.4-2.9,1.2-1.5,1.1-1.6,4.6-6.1,4.3-6.3c1.5-2,2.8-4.2,4.2-6.3s2.8-4.3,4-6.5c5.3-8.8,10.2-17.8,14.6-27s8.7-18.6,12.5-28.1,7.2-19.2,10.4-28.9c1.6-4.9,3-9.8,4.4-14.7s2.8-10,3.8-14.8Z" fill="#501b2b"/><line x1="137.5" y1="932.3" x2="117.2" y2="953" fill="none" stroke="#501b2b" stroke-miterlimit="10" stroke-width="7.19"/><line x1="224" y1="1001.3" x2="219.8" y2="1027.3" fill="none" stroke="#501b2b" stroke-miterlimit="10" stroke-width="7.19"/><path d="M667.3,931.7s1.9,59.3,6.3,69,48.2,22.7,64.5,29-7.3,32.7-30,29.1-35.4,5.4-61.7,8.1-70.8-9-81.7-15.4-43.6-19.1-47.2-33.6-3.6-88-3.6-88" fill="#b36362"/><path d="M667.3,931.7s1.9,59.3,6.3,69,48.2,22.7,64.5,29-7.3,32.7-30,29.1-35.4,5.4-61.7,8.1-70.8-9-81.7-15.4-43.6-19.1-47.2-33.6-3.6-88-3.6-88" fill="none" stroke="#501b2b" stroke-miterlimit="10" stroke-width="9.58"/><path d="M729.4,1047.7s-26-30.1-74.2-36l-26.9,12.2s41.8,6.6,54.4,42.7C682.7,1066.6,730.9,1057.6,729.4,1047.7Z" fill="#ddd2cc" stroke="#501b2b" stroke-miterlimit="10" stroke-width="4.79"/><path d="M732.6,1027s-92.5-31.8-148.8,23.6l-30.9-5.5s78.1-62.6,158-37.2Z" fill="#ddd2cc" stroke="#501b2b" stroke-miterlimit="10" stroke-width="4.79"/><path d="M747.5,1035.2s-27.9,19.3-60.5,23-114.4-10.9-141.6-23.6l-28.5-12.8,12.4,25.2s74.4,37.2,135.3,43.5,88.9-25.4,90.7-29S747.5,1035.2,747.5,1035.2Z" fill="#ddd2cc" stroke="#501b2b" stroke-miterlimit="10" stroke-width="9.58"/><path d="M498.5,948.9l1.8,65.4s30.8,14.5,15.4,39-169.7,8.2-193.3-6.3-18.2-43.6,12.7-117.1" fill="#b36362"/><g clip-path="url(#a)"><path d="M288.7,1036.6A197.4,197.4,0,0,1,346.3,989c12.8-7,26.5-12.6,41-14.2,21.1-2.4,42.1,3.7,62.4,9.7l61.1,18c4.3,1.3,8.7,2.5,13,1.4a18.9,18.9,0,0,0,7.9-4.5c14.7-12.8,19.6-34.5,15.3-53.5s-16.7-35.4-31.5-48a138.6,138.6,0,0,0-98.2-32.1C333.3,871.8,261.4,951.6,288.7,1036.6Z" fill="#803a38"/></g><path d="M498.5,948.9l1.8,65.4s30.8,14.5,15.4,39-169.7,8.2-193.3-6.3-18.2-43.6,12.7-117.1" fill="none" stroke="#501b2b" stroke-miterlimit="10" stroke-width="9.58"/><path d="M475.8,1058.8s-.9-43.6-42.7-62.7l-22.7-.9s32.7,36.3,12.7,61.7Z" fill="#ddd2cc" stroke="#501b2b" stroke-miterlimit="10" stroke-width="4.79"/><path d="M520.2,1050.6s-5-32.3-50.6-37.9-96.4-6.6-114.6,46.1l-36.3-13.7s47.1-52.6,110.8-52.6c75.3,0,96.2,33.6,98.9,49.9Z" fill="#ddd2cc" stroke="#501b2b" stroke-miterlimit="10" stroke-width="4.79"/><path d="M529.3,1047v16a19.7,19.7,0,0,1-19.3,19.8c-34.1.7-104.2,1.8-133.2.5-39-1.8-79-27.3-79-27.3v-24.5l71.8,22.7S512.1,1056.9,529.3,1047Z" fill="#ddd2cc" stroke="#501b2b" stroke-miterlimit="10" stroke-width="9.58"/><path d="M769.3,564.8c-7.5-2.9-14.8-16.9-19.6-22.7-13.7-16.6-31-41-51.6-49.5a21.4,21.4,0,0,0-2.7-.9c-19-4.5-89.8-2.7-42.6,113.5s106.6,128.6,115.7,93.2c1.2-4.6,36.8,19.6,55.2,9l.5-.3c25.3-14.6,50.4-30.5,72-50.3,9.8-9,19.6-19.1,25.2-31.3,7-15.1,3.5-36.2-.2-51.8-2.9-12.3-8-24.7-17.6-32.8-2.2-1.9-4.7-3.6-6.5-5.9-4.2-5.3-4-13.1-2-19.2,1.4-4.2,5.9-8.1,6.2-12.4.6-9.4-13.7-23.5-22.6-24.1s-15.2,6-21.7,11.3c-15.9,13-35.8,20-53.4,30.6-3.3,2-5.6,5.2-8.6,7.7-13.9,11.9,6,19.6-23.9,36.4C770.6,565.6,769.9,565.1,769.3,564.8Z" fill="#b36362"/><path d="M731.8,628.9a8.9,8.9,0,0,1-.3-1.4l-.2-1.1c-.1-.6-.1-1.3-.2-1.9V621a49.1,49.1,0,0,1,.5-6.7c.3-2.2.6-4.3,1.1-6.5s1-4.2,1.6-6.3a70.8,70.8,0,0,1,11.8-22.8,79.5,79.5,0,0,1,19-17.1c7.1-4.7,14.8-8.4,22.7-12.1l3.1,11.6a59.5,59.5,0,0,0-22.2,6.6l-2.6,1.4-2.4,1.5-2.4,1.7-2.3,1.8a53,53,0,0,0-8,8.4,51,51,0,0,0-9.2,20.9c-.2.9-.3,1.9-.5,2.8a28.3,28.3,0,0,0-.2,2.9,27.2,27.2,0,0,0-.1,5.7,34.3,34.3,0,0,0,.6,5.5,18.3,18.3,0,0,0,.6,2.5c.1.4.3.8.4,1.1l.2.4a.1.1,0,0,0,.1.1Z" fill="#501b2b"/><path d="M766,686.9l1-.7,1-.3,1.4-.3h1.7l1.6.5,1.6.7,2.3,1.3,3.8,2.5c2.5,1.5,4.9,3,7.4,4.3a57.5,57.5,0,0,0,15.5,5.9,33.8,33.8,0,0,0,15.8.1,32.1,32.1,0,0,0,7.3-2.7c2.5-1.4,5.1-2.8,7.6-4.4q7.5-4.6,14.7-9.9c4.9-3.4,9.7-6.9,14.4-10.6,9.4-7.3,18.6-14.9,27.5-22.8,4.5-4,8.9-8,13.1-12.2,2.1-2.1,4.2-4.1,6.2-6.3a83.9,83.9,0,0,0,5.6-6.5l.6-.9.5-.7.9-1.7a23.9,23.9,0,0,0,1.5-3.7,44.2,44.2,0,0,0,1.7-8.2,82.3,82.3,0,0,0,.4-17.2,107,107,0,0,0-2.8-17.1,79.3,79.3,0,0,0-5.9-16.1,64.4,64.4,0,0,0-4.2-7.2,37.7,37.7,0,0,0-5.3-5.9A21.3,21.3,0,0,0,890,541l1.6-11.8a35.8,35.8,0,0,1,5.4,1.4,44.4,44.4,0,0,1,4.9,2.4,33.5,33.5,0,0,1,8.2,6.6,45.8,45.8,0,0,1,6.1,8,58.1,58.1,0,0,1,4.4,8.6c5,11.8,7.3,24.1,8.1,36.5.1,3.1.2,6.2,0,9.3a73,73,0,0,1-.8,9.4,52.9,52.9,0,0,1-2.1,9.4,26.2,26.2,0,0,1-1.9,4.6,16.7,16.7,0,0,1-1.2,2.3,10.5,10.5,0,0,1-.8,1.1l-.7,1a85.7,85.7,0,0,1-6.1,7.2c-2,2.3-4.2,4.4-6.3,6.6-4.4,4.2-8.8,8.4-13.3,12.4-9,8.1-18.2,16-27.6,23.5s-19,15-29.3,21.7c-2.5,1.7-5.1,3.3-7.9,5a42.2,42.2,0,0,1-9.3,3.8,46.7,46.7,0,0,1-20,.8,80.9,80.9,0,0,1-18.4-6l-8.4-4.3-3.9-2.1-1.7-.9c-.2-.1-.4-.2-.4-.1h1.6l1.2-.2.8-.4.9-.5Z" fill="#501b2b"/><path d="M796,593.4a106.5,106.5,0,0,1-6.9-17.2,103.3,103.3,0,0,1-3.6-18.4,67.6,67.6,0,0,1,.6-19.5,48,48,0,0,1,3.3-9.9,37.7,37.7,0,0,1,6.3-8.9,45,45,0,0,1,8.3-6.4,67.2,67.2,0,0,1,8.8-4.6c5.9-2.5,11.7-4.4,17.2-6.4s10.6-4.3,14.8-7.4l2.9-2.4,1.3-1.4.6-.7.6-.8a48.2,48.2,0,0,1,7-7.3,45.8,45.8,0,0,1,8.6-5.7,35.5,35.5,0,0,1,10.2-3.1,26.9,26.9,0,0,1,10.9.8,25.4,25.4,0,0,1,9.6,5.1,31.8,31.8,0,0,1,6.7,8.1l1.2,2.3,1.1,2.2a33.9,33.9,0,0,1,1.7,4.8,22.9,22.9,0,0,1,.6,10.8,17.3,17.3,0,0,1-2.1,5.3,17.8,17.8,0,0,1-3.5,4.2,31.3,31.3,0,0,1-8.6,5.3,58.2,58.2,0,0,1-8.9,3c-6,1.6-12,2.7-17.9,4a82.9,82.9,0,0,0-8.6,2.1l-8.6,2.9a110.7,110.7,0,0,0-16.7,6.9,76.2,76.2,0,0,1,7.7-4.8c2.7-1.4,5.4-2.8,8.2-4.1l8.3-3.7a60.4,60.4,0,0,1,8.7-3.1c5.8-1.8,11.7-3.4,17.2-5.4a64.1,64.1,0,0,0,8-3.4,24.3,24.3,0,0,0,6.6-4.6,14.6,14.6,0,0,0,2.1-2.8,11.9,11.9,0,0,0,1-3.2,15.1,15.1,0,0,0-1-7.1c-.5-1.2-1-2.4-1.6-3.6l-1-1.8-1-1.7a23.3,23.3,0,0,0-5.2-5.6,15.9,15.9,0,0,0-6.4-3.1,18.8,18.8,0,0,0-7.1-.1,27.3,27.3,0,0,0-13.3,7,49.6,49.6,0,0,0-5.3,5.9l-.7,1-.9,1.1-1.8,2a43.6,43.6,0,0,1-4,3.5c-5.5,4.2-11.5,6.9-17.3,9.2s-11.5,4.2-16.7,6.5-9.8,5-13.2,8.5a26.5,26.5,0,0,0-4.2,5.9,38.1,38.1,0,0,0-2.5,7.2,88.9,88.9,0,0,0-1.9,16.7c-.3,5.7-.2,11.7,0,17.6S796.1,587.2,796,593.4Z" fill="#4d1329"/><path d="M853.7,689.1s1.2,40-42.9,40.7S702.5,583.7,778.2,557.1c0,0-4.1,73.9,18.9,111C833.8,727.5,853.7,689.1,853.7,689.1Z" fill="#c48b26" stroke="#501b2b" stroke-miterlimit="10" stroke-width="9"/><path d="M670.9,458.8s64.5,61,98.4,102.1" fill="none" stroke="#501b2b" stroke-miterlimit="10" stroke-width="11.98"/><path d="M717.2,830l20.9,87.2s-33.6,59.9-198.8,54.4-269.6-56.3-269.6-56.3l15.4-63.5" fill="#ac1f27"/><polygon points="269.7 915.3 285.1 851.8 316.6 850.2 269.7 915.3" fill="#fff"/><path d="M726.3,930l-47.2-77L662.4,960.4l-1,.3-59.5-94.4L585.1,971.4h-1.5L539.9,871.2l-34.5,98.6h-1.2l-30.9-101-54.4,88.4L394.7,853l-46,89.6-23.2-92.8L717.2,830l20.9,87.2S735,922.6,726.3,930Z" fill="#fff"/><path d="M717.2,830l20.9,87.2s-33.6,59.9-198.8,54.4-269.6-56.3-269.6-56.3l15.4-63.5" fill="none" stroke="#501b2b" stroke-miterlimit="10" stroke-width="9.58"/><path d="M601.9,866.3l6.4,59s-156.1,5.5-241.5-15.4-95.3-31.8-95.3-31.8l13.6-49.9" fill="#c16d2d" stroke="#501b2b" stroke-miterlimit="10" stroke-width="9.58"/><path d="M601.9,866.3l6.4,59s-156.1,5.5-241.5-15.4-95.3-31.8-95.3-31.8l13.6-49.9" fill="#c16d2d"/><g clip-path="url(#b)"><path d="M249.8,890.5c9,16.8,28.5,24.8,46.7,30.6a588.9,588.9,0,0,0,119.8,24c11.6,1.1,24.4,1.5,33.4-5.8s8.3-25.4-3-27.8C457,897,478.2,898,496,897.7a170.2,170.2,0,0,0,48.5-8.3c17.4-5.7,36.2-18,35.9-36.3-.1-13.8-12-25.2-25-29.9s-27.2-4.4-41-5.2c-41.1-2.4-80.8-15.1-121.1-23.3-32.5-6.7-85.4-16.6-116.9-.1C248.4,809.2,235.5,863.9,249.8,890.5Z" fill="#501b2b" opacity="0.3"/></g><path d="M601.9,866.3l6.4,59s-156.1,5.5-241.5-15.4-95.3-31.8-95.3-31.8l13.6-49.9" fill="none" stroke="#501b2b" stroke-miterlimit="10" stroke-width="9.58"/><path d="M613.7,864.5l21.8,60.8s69-7.2,98.1-37.2l-9.1-54.9" fill="#c16d2d" stroke="#501b2b" stroke-miterlimit="10" stroke-width="9.58"/><path d="M613.7,864.5l21.8,60.8s69-7.2,98.1-37.2l-9.1-54.9" fill="#c16d2d"/><g clip-path="url(#c)"><path d="M623.7,848.6c-2.1-.3-.8,3.5,1.2,4.4,17,7.5,39.4,1.6,53.1,14.2,8.8,8.1,10.6,21,14.1,32.4s11.7,23.8,23.7,23.6c6-.1,11.5-3.6,16.4-7.3a121.3,121.3,0,0,0,37.2-46.7c5.1-11.2,8.5-23.7,7.1-36a49.3,49.3,0,0,0-24.2-36.7c-15.1-8.6-33.5-8.5-50.8-6.4a252.6,252.6,0,0,0-72.1,20.3" fill="#501b2b" opacity="0.3"/></g><path d="M613.7,864.5l21.8,60.8s69-7.2,98.1-37.2l-9.1-54.9" fill="none" stroke="#501b2b" stroke-miterlimit="10" stroke-width="9.58"/><path d="M724.5,833.2s-96.8,82.1-439.4-1.4c0,0-12.7-45.4,6.7-53.8S724.5,833.2,724.5,833.2Z" fill="#ddd2cc"/><g clip-path="url(#d)"><path d="M288,733.8c-37,20.8-53.5,71.7-35.6,110.2s67.6,58.6,107.3,43.6c2.7-1,5.4-2.2,7.3-4.4,8.5-9.8-6.9-26-.6-37.4,2.2-4,6.7-6.2,11.1-7.7,39.3-13.1,81.7,15.7,122.7,9.3,3.3-.5,7.1-1.6,8.7-4.6,2.8-5.6-4-11.1-9.8-13.4-33.4-13.2-72.4-13.4-101.5-34.5-13.9-10.1-24.4-24.2-36.5-36.4a175.3,175.3,0,0,0-42.7-31.3c-7.5-3.9-15.7-7.3-24.1-6.9-22.8,1.1-34.9,26.7-42,48.4" fill="#501b2b" opacity="0.3"/></g><path d="M724.5,833.2s-96.8,82.1-439.4-1.4c0,0-12.7-45.4,6.7-53.8S724.5,833.2,724.5,833.2Z" fill="none" stroke="#501b2b" stroke-miterlimit="10" stroke-width="9.58"/><path d="M745.7,776.8S648.2,828.2,296,744.7l26.4,43.6S532,885.4,730.5,828.2A270.6,270.6,0,0,0,745.7,776.8Z" fill="#ddd2cc" stroke="#501b2b" stroke-miterlimit="10" stroke-width="9.58"/><path d="M745.7,776.8S648.2,828.2,296,744.7l26.4,43.6S532,885.4,730.5,828.2A270.6,270.6,0,0,0,745.7,776.8Z" fill="#ddd2cc"/><g clip-path="url(#e)"><path d="M493.4,815.6c17.6,2.9,34.6,9,52.2,11.8,21.1,3.3,42.7,1.7,64,.1,55.5-4.3,116.1-10.7,155.5-50,8.4-8.5,15.9-19,16.3-30.9.5-14.8-10-27.9-22.2-36.3-22.8-15.6-52-18.9-79.6-16.7s-54.4,9.6-81.7,13.6c-46.1,6.7-92.8,3.6-139.2,6.1-29.2,1.7-78.1-.4-94,29.8C322.2,823.9,457,809.8,493.4,815.6Z" fill="#501b2b" opacity="0.4"/></g><path d="M745.7,776.8S648.2,828.2,296,744.7l26.4,43.6S532,885.4,730.5,828.2A270.6,270.6,0,0,0,745.7,776.8Z" fill="none" stroke="#501b2b" stroke-miterlimit="10" stroke-width="9.58"/><path d="M700.9,540.8s-3.7,20.5,30.2,79.8c15.1,26.4,32.9,52.3,42.7,81.2,3.7,10.7,6.2,22.4,4.1,33.7s-9.2,20.2-18.4,26.6a179.4,179.4,0,0,1-30.4,16.6c-7.8,3.3-15.2,5.9-23.7,6.9s-17.6.9-25.9,3.5a13.5,13.5,0,0,0-3.8,1.9,27.1,27.1,0,0,1-6.5,4l-21.8,9c-20.6,8.6-42.5,17.3-64.7,14.2-15.9-2.2-30.8-10.5-46.9-11.4-14-.8-27.5,4.8-41.4,3.9-4-.3-7.7-1.7-11.6-2.3a39.7,39.7,0,0,0-7.7-.1c-5.6.4-10.9.7-16.4-.1-8.6-1.4-16.8-4.5-24.9-7.5l-1.9-.7a171.3,171.3,0,0,0-42.4-9.5c-28.2-3-56.9-1.5-84.8-7.5-20.9-4.6-43.2-14.3-55.5-32.7-15.9-23.8-6.3-53-2.4-79a417.5,417.5,0,0,1,35.3-116" fill="#c16d2d"/><path d="M704.4,541.4h0v3a21.9,21.9,0,0,0,.3,3.6l.2,1.8.4,1.8.3,1.8.4,1.8c.5,2.4,1.2,4.9,1.9,7.3s1.5,4.8,2.4,7.1a221.7,221.7,0,0,0,12.3,27.8,302.4,302.4,0,0,0,15.2,26.5c5.7,8.6,11.8,16.8,17.3,25.6,2.7,4.4,5.3,8.9,7.7,13.5s4.9,9.3,7.1,14,4.3,9.6,6.1,14.6c1,2.5,1.8,5,2.7,7.5s1.6,5.1,2.2,7.7a78.3,78.3,0,0,1,2.6,16.2,51,51,0,0,1-2.1,16.8,43.6,43.6,0,0,1-8.1,14.8,53.4,53.4,0,0,1-12.5,10.8c-4.4,2.8-8.9,5.4-13.5,7.9S737.9,778,733,780s-9.6,3.9-14.7,5.5q-3.7,1.1-7.8,1.8a72.4,72.4,0,0,1-7.8,1,147.4,147.4,0,0,0-15.2,1.6,56,56,0,0,0-7,2,16.7,16.7,0,0,0-2.7,1.4l-1.3,1.1-1.6,1.3a20,20,0,0,1-3.7,2.5l-3.6,1.8-6.9,3.4c-4.6,2.2-9.3,4.4-14,6.4A182.7,182.7,0,0,1,617,820.1a91,91,0,0,1-32.1,2,98.6,98.6,0,0,1-15.6-3.7l-14.7-4.7c-2.4-.7-4.8-1.4-7.2-1.9l-3.7-.7-3.6-.5a43.4,43.4,0,0,0-7.2-.3,62.6,62.6,0,0,0-7.3.8c-4.8.7-9.8,1.9-15,2.8-2.6.5-5.2.8-7.9,1.1a76.3,76.3,0,0,1-8.3.1,45.7,45.7,0,0,1-8.3-1.5l-3.5-.8-3.3-.4c-1.1-.1-2.2,0-3.4,0l-3.8.2c-2.7.1-5.4.2-8.1.1a75.3,75.3,0,0,1-8.3-1.1c-2.6-.6-5.2-1.3-7.7-2.1-5.1-1.7-9.9-3.6-14.7-5.5a147.9,147.9,0,0,0-29-8.4A253.2,253.2,0,0,0,374,792l-30.7-1.6c-5.2-.3-10.3-.6-15.5-1.1l-7.7-.9-7.7-1.1a140.4,140.4,0,0,1-30.3-8.3c-9.7-4-19.1-9.4-26.8-16.9a58.9,58.9,0,0,1-10.1-12.6,49.5,49.5,0,0,1-3.6-7.3,76.6,76.6,0,0,1-2.5-7.7l-.4-2a14.2,14.2,0,0,1-.4-2l-.6-4-.3-4c-.1-1.3,0-2.7-.1-4a116,116,0,0,1,1.1-15.7c1.3-10.4,3.5-20.5,5-30.5a432.8,432.8,0,0,1,13.4-60.5,422.5,422.5,0,0,1,22.1-58l6.4,3a413.4,413.4,0,0,0-22.1,56.9,418.2,418.2,0,0,0-13.6,59.6c-1.6,10.2-3.9,20.2-5.2,30.2a108,108,0,0,0-1,15v3.7l.3,3.7c.1,1.2.4,2.4.5,3.6l.3,1.8.5,1.8a42.2,42.2,0,0,0,2.1,6.9,49,49,0,0,0,3.2,6.5,52,52,0,0,0,9,11.4c7.1,6.9,15.8,12,25,15.8a129.9,129.9,0,0,0,29,8.1l7.5,1.1c2.5.3,5,.7,7.6.9,5,.5,10.1.9,15.2,1.2,10.2.6,20.5.9,30.8,1.5l15.5,1.2c5.1.5,10.3,1.2,15.4,2.1a185.1,185.1,0,0,1,30.3,8c4.9,1.7,9.6,3.4,14.4,4.7q3.6.9,7.2,1.5a33.3,33.3,0,0,0,7,.7l7.3-.3,3.9-.4h4.2a21.2,21.2,0,0,1,4.4.4l4.1.8a37.6,37.6,0,0,0,6.8,1.2c9.3.5,19.2-2.1,29.8-2.9a74.2,74.2,0,0,1,8.2-.2h2l2.1.2,2,.2,2,.3q4.1.8,7.8,1.8l3.8,1,3.8,1.1c5,1.6,9.8,3.2,14.7,4.5a59.3,59.3,0,0,0,7.3,1.6,44.3,44.3,0,0,0,7.2.9c9.8.6,19.5-1.3,28.9-4.1s18.8-6.7,28.3-10.4l14.5-5.3,7.3-2.5,3.5-1.1a19.2,19.2,0,0,0,2.9-1.4l1.6-1,1.8-1.1a14.7,14.7,0,0,1,4.3-1.7,79.9,79.9,0,0,1,8-1.5c5.3-.7,10.5-.9,15.5-1.4a57.4,57.4,0,0,0,7.4-1q3.6-.7,7.2-1.8a111.1,111.1,0,0,0,14-5.7,150.3,150.3,0,0,0,26-15.3,45.8,45.8,0,0,0,10.3-9.8,33.5,33.5,0,0,0,5.8-12.4,39.7,39.7,0,0,0,.8-13.8,68.4,68.4,0,0,0-2.9-14c-1.5-4.6-3.2-9.3-5.2-13.9s-4.1-9.1-6.2-13.6-4.6-9-7.1-13.4-5-8.8-7.4-13.3c-4.9-8.9-9.5-18.2-14.2-27.4s-9.7-18.3-14.2-27.6l-3.3-7c-1.1-2.4-2.1-4.8-3.2-7.1-2.1-4.8-4-9.6-5.8-14.5-.9-2.5-1.7-5-2.6-7.4s-1.5-5.1-2.1-7.7l-.5-1.9-.4-1.9-.4-2-.3-2a27,27,0,0,1-.5-4.1,15.5,15.5,0,0,1-.1-2.2,11.4,11.4,0,0,1,.1-2.5Z" fill="#501b2b"/><path d="M700.9,540.8s-3.7,20.5,30.2,79.8c15.1,26.4,32.9,52.3,42.7,81.2,3.7,10.7,6.2,22.4,4.1,33.7s-9.2,20.2-18.4,26.6a179.4,179.4,0,0,1-30.4,16.6c-7.8,3.3-15.2,5.9-23.7,6.9s-17.6.9-25.9,3.5a13.5,13.5,0,0,0-3.8,1.9,27.1,27.1,0,0,1-6.5,4l-21.8,9c-20.6,8.6-42.5,17.3-64.7,14.2-15.9-2.2-30.8-10.5-46.9-11.4-14-.8-27.5,4.8-41.4,3.9-4-.3-7.7-1.7-11.6-2.3a39.7,39.7,0,0,0-7.7-.1c-5.6.4-10.9.7-16.4-.1-8.6-1.4-16.8-4.5-24.9-7.5l-1.9-.7a171.3,171.3,0,0,0-42.4-9.5c-28.2-3-56.9-1.5-84.8-7.5-20.9-4.6-43.2-14.3-55.5-32.7-15.9-23.8-6.3-53-2.4-79a417.5,417.5,0,0,1,35.3-116" fill="#c16d2d"/><g clip-path="url(#f)"><path d="M388.6,562.6c-20,12.9-23.9,40.2-23.2,63.9.9,35.2,8.1,71.4,28.5,100.2,22.2,31.2,58.9,50.8,97,55.9s77.1-3.3,111.7-20c20.5-9.9,42-23,64.3-18.4,8.3,1.7,16,5.8,24.4,7.3,19.8,3.3,39.7-9.8,49.9-27.1s12.6-38.2,13.6-58.3c.2-3.8.4-7.8,2.2-11.1,6.9-12.2,26-4.1,34.9,6.7,21.1,25.6,29.5,61.1,22.3,93.5-7.7,34.2-31.7,63.1-60.9,82.5s-63.3,30.2-97.5,37.8C571.3,894.3,483.6,895,397.2,889c-51.9-3.7-110.7-13.8-139.1-57.5-26-40-16-93.3,1.4-137.8a498.4,498.4,0,0,1,87.9-145.3" fill="#501b2b" opacity="0.4"/></g><path d="M700.9,540.8s-3.7,20.5,30.2,79.8c15.1,26.4,32.9,52.3,42.7,81.2,3.7,10.7,6.2,22.4,4.1,33.7s-9.2,20.2-18.4,26.6a179.4,179.4,0,0,1-30.4,16.6c-7.8,3.3-15.2,5.9-23.7,6.9s-17.6.9-25.9,3.5a13.5,13.5,0,0,0-3.8,1.9,27.1,27.1,0,0,1-6.5,4l-21.8,9c-20.6,8.6-42.5,17.3-64.7,14.2-15.9-2.2-30.8-10.5-46.9-11.4-14-.8-27.5,4.8-41.4,3.9-4-.3-7.7-1.7-11.6-2.3a39.7,39.7,0,0,0-7.7-.1c-5.6.4-10.9.7-16.4-.1-8.6-1.4-16.8-4.5-24.9-7.5l-1.9-.7a171.3,171.3,0,0,0-42.4-9.5c-28.2-3-56.9-1.5-84.8-7.5-20.9-4.6-43.2-14.3-55.5-32.7-15.9-23.8-6.3-53-2.4-79a417.5,417.5,0,0,1,35.3-116" fill="none" stroke="#501b2b" stroke-miterlimit="10" stroke-width="11.98"/><path d="M677.9,459.7s33.4,15.5,33.6,23.5,5.1,22.5,1.5,47.9S648.8,672.7,550.8,683.6s-150.1-42.4-197.3-58.1-72.6-17.6-81.1-9.1c0,0-16.9-21.2-7.2-38.1s6-37.5,10.9-47.2,31.4-58.1,62.9-63S585.9,603.7,677.9,459.7Z" fill="#ac1f27"/><path d="M704.5,487.8S681.8,617.6,592.9,643c-61.7,17.6-124-5.5-179.1-32.6-27.4-13.4-53.8-29.1-82-40.8-11.7-4.8-51.4-25.2-62.1-9.2l-4.5,17.9c1.8-7.4,43.3-.7,47.4.5,43.9,12.4,82.1,40.5,124.7,57,36,13.8,79.1,29.8,118.3,23.6,62.7-10,122.6-34.5,155.3-172.5" fill="#cf8f2b"/><path d="M677.1,457.2l2,.2h.2l.2.2.6.2,1.1.6,2.2,1,4.3,2.3c2.9,1.5,5.8,3,8.6,4.7s5.6,3.4,8.3,5.3a28.7,28.7,0,0,1,4,3.1,27.3,27.3,0,0,1,3.8,3.8,9.4,9.4,0,0,1,1.6,3,3.6,3.6,0,0,0,.2,1v1.9a38.7,38.7,0,0,0,.6,4.6c.5,3.2,1,6.4,1.3,9.7a117.7,117.7,0,0,1,.7,19.7c-.1,3.3-.4,6.5-.8,9.8a49.9,49.9,0,0,1-.7,5c-.3,1.7-.8,3.3-1.2,4.9a139.6,139.6,0,0,1-7.3,18.3,269.3,269.3,0,0,1-19.1,34c-14.4,21.7-31.4,41.7-51.6,58.4a199.8,199.8,0,0,1-32.6,21.9,155.1,155.1,0,0,1-37,13.7,161.2,161.2,0,0,1-19.5,3c-6.5.6-13,.9-19.5,1a211.7,211.7,0,0,1-39-3.3A215.4,215.4,0,0,1,450.8,675a305.8,305.8,0,0,1-35.6-15.8c-11.5-5.9-22.7-12.3-34-18.3-5.6-3-11.3-5.9-17.1-8.5l-8.8-3.5c-2.9-1.1-6-2.1-9.1-3.1a340,340,0,0,0-36.9-9.8,109,109,0,0,0-18.7-2,34.3,34.3,0,0,0-9.1.8,14.7,14.7,0,0,0-7.2,3.4l-2.1,2.1-1.8-2.3h0a43.9,43.9,0,0,1-2.8-3.6c-.8-1.3-1.6-2.5-2.4-3.9a56.6,56.6,0,0,1-4-8.2,37.9,37.9,0,0,1-2.3-9.1,29,29,0,0,1,.4-9.7,10.5,10.5,0,0,1,.6-2.4,23.4,23.4,0,0,1,.9-2.4,15.1,15.1,0,0,1,1.1-2.2c.3-.7.6-1.2.9-1.8a66.1,66.1,0,0,0,2.8-7.4,85.4,85.4,0,0,0,2.7-16.3c.3-2.8.5-5.6.8-8.6a54.9,54.9,0,0,1,1.5-9.2,22.5,22.5,0,0,1,.8-2.4c.3-.8.8-1.8,1.1-2.4s1.3-2.6,2-3.9,2.9-5.2,4.4-7.7a179.1,179.1,0,0,1,20.8-28.5,117.5,117.5,0,0,1,13-12.4,68.4,68.4,0,0,1,15.9-9.5,40.5,40.5,0,0,1,9.2-2.6h2.8l2.7.2a32.9,32.9,0,0,1,4.7.8,135.4,135.4,0,0,1,17,5.3c11,4,21.6,8.3,32.3,12.5s21.4,8.3,32.1,12.2S451,502,462,505.3s21.9,6.2,33,8.7c22.2,4.9,44.9,7.8,67.4,6.8a162.8,162.8,0,0,0,33.4-4.6,129.3,129.3,0,0,0,31.3-12.1,122.5,122.5,0,0,0,27.1-19.8,134,134,0,0,0,11.4-12.4c1.8-2.2,3.6-4.4,5.2-6.7s1.7-2.3,2.5-3.4l.8-1.2,1-1.2A21.9,21.9,0,0,1,677.1,457.2Zm1.5,5a13,13,0,0,1-.3,1.3,1.4,1.4,0,0,1-.2.6,2.7,2.7,0,0,1-.4.7l-2.4,3.6c-1.7,2.4-3.5,4.7-5.3,7a133,133,0,0,1-11.7,13.2,135.4,135.4,0,0,1-28,21.3,144.6,144.6,0,0,1-32.7,13.2,171.1,171.1,0,0,1-34.8,5.2c-23.4,1.2-46.8-1.6-69.5-6.3-11.4-2.4-22.7-5.3-33.8-8.5s-22.1-7-33-10.9-21.6-8-32.4-12.2S372.7,482,362,478.1a144.4,144.4,0,0,0-15.9-4.9c-2.6-.5-5.1-.9-6.8-.6a39.2,39.2,0,0,0-7.4,2.2,52.5,52.5,0,0,0-13.5,8.2,99.4,99.4,0,0,0-12,11.4,177.7,177.7,0,0,0-19.8,27.1c-1.5,2.4-2.9,4.8-4.3,7.2l-2,3.7-.7,1.6-.6,1.6a43.4,43.4,0,0,0-1.4,7.8l-.9,8.5a102.6,102.6,0,0,1-3.5,17.7,63.7,63.7,0,0,1-3.6,8.5l-1.2,2.1c-.2.5-.6,1-.8,1.6a7.7,7.7,0,0,0-.7,1.6,15.4,15.4,0,0,0-.5,1.7,20.5,20.5,0,0,0-.6,7.4,33.9,33.9,0,0,0,1.5,7.7,40.9,40.9,0,0,0,3.1,7.5,45.2,45.2,0,0,0,4.1,7.1h0l-3.9-.3a16.3,16.3,0,0,1,4.7-3.2,33.3,33.3,0,0,1,5.1-1.6,51.5,51.5,0,0,1,10.2-.9,115.3,115.3,0,0,1,19.6,2.2,319.7,319.7,0,0,1,37.6,9.9c3.1,1,6.2,1.9,9.3,3s6.1,2.4,9.1,3.7c6,2.6,11.8,5.4,17.6,8.4,11.4,6,22.6,12.3,34.1,18a318.9,318.9,0,0,0,35,15.2,223.8,223.8,0,0,0,36.8,9.6,207.8,207.8,0,0,0,37.8,2.7c6.3,0,12.7-.4,19-1a144,144,0,0,0,18.6-2.9,149.7,149.7,0,0,0,35.2-13.2,186.3,186.3,0,0,0,31.4-20.9A260.3,260.3,0,0,0,682.5,587a246.7,246.7,0,0,0,19.2-33,144.4,144.4,0,0,0,7.1-17.4c.4-1.5.9-3,1.2-4.4s.4-3,.6-4.6.7-6.2.8-9.4a117.8,117.8,0,0,0-.5-18.8c-.4-3.2-.9-6.3-1.3-9.5a38.6,38.6,0,0,1-.6-4.9v-1.7h-.1a2.8,2.8,0,0,0-.7-1.3,16.3,16.3,0,0,0-2.9-3c-1.1-1-2.4-1.9-3.6-2.8s-5.2-3.5-8-5.1-5.5-3.1-8.3-4.6l-4.3-2.2-2.1-1-1.1-.6-.5-.2h1.3Z" fill="#501b2b"/><path d="M674.2,454.8l37.6,26.6s-18.2,92-129.5,116.2S345,491.1,330.5,468.1l30.3-31.4S547.2,603.7,674.2,454.8Z" fill="#cf8f2b"/><g clip-path="url(#g)"><path d="M352.9,409.3c-22.2,11.6-35.7,38-32,62.8,13.9-11.9,35.2-10.6,51.8-3s30.2,20.6,45.1,31.3c50.8,36.4,118.1,45.7,179.3,32.8,49-10.3,99.5-39.6,112-88.1,3.5-13.4,3.6-28.3-3.4-40.2-9.7-16.5-30-23-48.6-27.1-32-7.1-64.7-11.1-95.5-22.4-25.9-9.5-51.1-24.2-78.7-24.2-20.1.1-39.3,8-57,17.4A329.1,329.1,0,0,0,289.3,486.5" fill="#ffec7a" opacity="0.3"/></g><path d="M673.7,450.1l20.5,13.4c6.8,4.6,13.7,9.3,20.3,14l2.6,1.8-.6,3.1h0c-.2.8-.3,1.4-.5,2l-.5,2-1,3.7c-.8,2.5-1.6,5-2.5,7.4a148.8,148.8,0,0,1-6.2,14.2c-1.2,2.3-2.3,4.6-3.6,6.8s-2.6,4.4-4,6.6c-2.7,4.4-5.7,8.6-8.8,12.7s-6.5,7.9-10.1,11.7-7.2,7.2-11.1,10.6a161.5,161.5,0,0,1-25,17.7,178.6,178.6,0,0,1-27.6,13.1q-7.1,2.7-14.4,4.8t-14.7,3.9a146.9,146.9,0,0,1-15,2.7c-5,.6-10.1,1-15.2,1.2a162.5,162.5,0,0,1-30.4-2.2c-20.1-3.2-39.5-9.8-57.9-18.3a349.8,349.8,0,0,1-52.4-30.3,461.8,461.8,0,0,1-47.4-37.5c-7.5-6.7-14.7-13.7-21.7-21-3.6-3.6-7-7.3-10.3-11.2-1.7-1.9-3.4-3.8-5-5.9a66.2,66.2,0,0,1-4.7-6.4l-2.1-3.1,2.7-2.8h0l30.2-31.5,3.2-3.3,3.5,3.1h0c2.6,2.3,5.5,4.6,8.3,6.9l8.6,6.6q8.7,6.6,17.7,12.6A416.3,416.3,0,0,0,436,481.7a335.6,335.6,0,0,0,39.7,17.7c13.6,5,27.4,9.4,41.7,12a149.9,149.9,0,0,0,43.3,2,152.3,152.3,0,0,0,41.7-10.7,161,161,0,0,0,37.2-21.3,179.8,179.8,0,0,0,16.3-14c2.5-2.5,5.1-5,7.5-7.6s2.5-2.7,3.7-4l1.1-1.3,1.7-1.6A19.5,19.5,0,0,1,673.7,450.1Zm1.1,9.5a10.5,10.5,0,0,1,.2,1.3c0,.2,0,.3-.1.4h-.1l-.2.2-.4.6-3.9,4.1c-2.5,2.7-5.2,5.4-7.9,8A198.3,198.3,0,0,1,645,488.7a152.5,152.5,0,0,1-83.8,30,236.9,236.9,0,0,1-44.6-1.8A239.5,239.5,0,0,1,473,507a322.5,322.5,0,0,1-41.1-17.4,399.6,399.6,0,0,1-38.6-22.4c-6.2-4.1-12.3-8.4-18.2-12.9l-8.9-6.8c-2.9-2.4-5.7-4.7-8.6-7.3h0l6.6-.2L334,471.5h0l.6-5.9a60.9,60.9,0,0,0,4.1,5.6c1.5,1.9,3,3.8,4.6,5.6,3.2,3.7,6.6,7.3,10,10.9,6.8,7.1,13.9,14,21.1,20.7a459.3,459.3,0,0,0,46.2,37.3,346.4,346.4,0,0,0,50.8,30.1c17.7,8.5,36.3,15.4,55.6,19.1a150.5,150.5,0,0,0,29.2,2.8,118,118,0,0,0,14.6-1l3.6-.5,3.6-.6,3.6-.7,3.6-.9a195.6,195.6,0,0,0,28.1-9,178.4,178.4,0,0,0,26-13.6,162.8,162.8,0,0,0,42.4-39.5,149,149,0,0,0,15.2-24.7,128.8,128.8,0,0,0,5.8-13.2c.9-2.2,1.7-4.5,2.5-6.8l1-3.4.5-1.7c.1-.5.3-1.2.4-1.6h0l1.9,4.9c-5.8-4.2-11.5-8.3-17.2-12.6Z" fill="#501b2b"/><path d="M281.5,648s15.1-2.4,20.6,16.3-6.7,105.3-66.6,101.1c0,0-33.9-1.8-34.5-41.8l25.4,20.6S286.9,750.2,281.5,648Z" fill="#c48b26" stroke="#501b2b" stroke-miterlimit="10" stroke-width="9.58"/><path d="M670.9,458.8s-10,163.3-44.5,236c0,0-225.1-191.6-257.8-258.7l-6.3-6.4s5.4,32.7,87.1,115.3S631.9,712,631.9,712s44.5-122.5,47.2-255.1Z" fill="#ddd2cc" stroke="#501b2b" stroke-miterlimit="10" stroke-width="4.79"/><ellipse cx="633.4" cy="728.7" rx="23.3" ry="35.4" transform="translate(-81.4 79.7) rotate(-6.8)" fill="#ddd2cc" stroke="#501b2b" stroke-miterlimit="10" stroke-width="4.79"/><ellipse cx="633.4" cy="728.7" rx="23.3" ry="35.4" transform="translate(-81.4 79.7) rotate(-6.8)" fill="#ddd2cc"/><g clip-path="url(#h)"><path d="M660.6,776.8c-14.7,16.1-46.9,21-61.4,1.7-16.3-21.7,1-23.5,15.7-30,8-3.5,12.7-8.1,19.7-12.3,12.4-7.3,3.7-6.7,19.5-5.7,12.4.8,12.5-6.9,17.4,10.1C674.9,752.5,668.6,768.1,660.6,776.8Z" fill="#501b2b" opacity="0.3"/><path d="M631.5,704.6A35.3,35.3,0,0,0,620,736.1c2.5,2.3,6.8.4,8.6-2.5s2.4-6.4,4.2-9.3,6.2-5.8,7.7-9.7-2.9-9.6-6-6.8" fill="#fff" opacity="0.3"/><path d="M607,712.9c2.8,7.4,1.7,15.8,4.3,23.3s12.2,13.8,18.3,8.7c3.7-3.1,6.1-9.8,10.6-8.3s4.4,6,7.8,5.9,3.5-2.5,4.4-4.6c3.4-8.3,6.8-16.5,10.1-24.8,7.5,9.2,7.2,23,1.8,33.6S649.2,765,639,770.9c-7.3,4.2-16.2,7.8-23.9,4.3s-9.7-9.4-12.3-15.7a145.5,145.5,0,0,1-11.1-54.9" fill="#6c4187" opacity="0.5"/></g><ellipse cx="633.4" cy="728.7" rx="23.3" ry="35.4" transform="translate(-81.4 79.7) rotate(-6.8)" fill="none" stroke="#501b2b" stroke-miterlimit="10" stroke-width="4.79"/><path d="M434.1,375.4c-.1,2.8-.1,4.4-.1,4.4A14.2,14.2,0,0,1,434.1,375.4Z" fill="#501b2b"/><path d="M252.9,972.3s-1.3-8.2-18.1-9.5l9-15.5s6.8-.2,14.1,8.2Z" fill="#cf8f2b"/><path d="M288.9,628.7c2.5-6.7,3.9-14.3-.6-20.1s-9-11.3-12.3-18.6c-6.9-15.3-10.5-31.8-16.4-47.5-2.5-6.7-6.5-14.1-13.6-15.5s-12.4,3.1-18,6.5c-18.7,11.3-40.9,10.2-61.2,17.2-39.5,13.6-58.8,69.5-55.7,112.8,0,0-6.2,19.1,38.5,37.2,12.1,4.9,24.4,10.4,37.3,13.2,6.4,1.5,9.7,1.4,15.1,5.6l20.5,16.6c2.3,1.8,4.6,3.6,7.4,4.4s6.6.1,9.7-1c19.7-7.3,30.9-26.8,36.3-46,2.7-9.9,4.6-20.6,4.3-30.9-.1-5.6-1.4-9.5.4-15.1S286.5,635.1,288.9,628.7Z" fill="#b36362"/><path d="M273.2,664.4a109.2,109.2,0,0,1,2.9-11.6q1.6-5.5,3.6-11.1c1.2-3.6,2.6-7.2,3.9-10.8l1-2.7a22.5,22.5,0,0,0,.8-2.4,28.4,28.4,0,0,0,1-4.9,26.9,26.9,0,0,0,.1-4.9,24.6,24.6,0,0,0-1-4.7,16.5,16.5,0,0,0-2.1-4.2l-.6-1-.8-.9-.8-.9-1-1.1a74.2,74.2,0,0,1-7.8-9.6,61.4,61.4,0,0,1-6-11,52.5,52.5,0,0,1-3.6-12.1c-.8-4-1.3-8-1.8-11.8a55.7,55.7,0,0,0-2.2-10.5,28.9,28.9,0,0,0-4.6-8.9,21.3,21.3,0,0,0-3.3-3.4,16.1,16.1,0,0,0-4-2.6,8.6,8.6,0,0,0-7.5-.4,15.4,15.4,0,0,0-3.8,2.3l-.9.8-1.1,1-1.2,1.1-1.3,1a45.3,45.3,0,0,1-11.4,6.2,73.7,73.7,0,0,1-12,3.3l-6,1a29.1,29.1,0,0,1-3.2.3h-3.2c-4.2,0-7.7-.3-10.8.3a78.8,78.8,0,0,0-10.5,3.3l-5.6,2-2.5.9-2.5,1a45.2,45.2,0,0,0-4.9,2.5l-2.3,1.4a18.2,18.2,0,0,0-2.3,1.5,70.8,70.8,0,0,0-8.4,7,74.1,74.1,0,0,0-7.4,8.4c-9.1,11.8-15.4,26-19.5,40.6a141.1,141.1,0,0,0-4.5,22.4,135.1,135.1,0,0,0-1,22.9h0v.7c0,.1.1.2.1.4v.4a3.1,3.1,0,0,0,.1,1,13.3,13.3,0,0,0,.5,1.9c.2.7.5,1.3.7,1.9a16.2,16.2,0,0,1,1,1.8,32.8,32.8,0,0,0,5.3,6.5,71,71,0,0,0,14.4,10c2.6,1.6,5.4,2.8,8.1,4.2l8.4,3.7c5.8,2.5,11.7,5,17.5,7.3a173.5,173.5,0,0,0,17.4,6.3,59.5,59.5,0,0,0,17.6,2.9c6,0,12-1.3,18.1-3s11.9-4.1,17.9-6.3l-4,2.7-2,1.3-2.1,1.2-4.2,2.4-4.3,2.2a60.4,60.4,0,0,1-18.9,5.9,58.8,58.8,0,0,1-20.1-1.1,157.4,157.4,0,0,1-18.8-5.4c-6.1-2.1-12.1-4.4-18-6.7l-4.6-1.9-4.5-2c-2.9-1.6-5.9-3-8.7-4.9a59,59,0,0,1-15.5-13.3,34.1,34.1,0,0,1-5.1-9.4c-.2-.9-.5-1.8-.7-2.7l-.3-2.8a13.7,13.7,0,0,1,.2-2.8,7.8,7.8,0,0,1,.2-1.4,6.4,6.4,0,0,0,.2-.7l.3-.8v.7h0a146.5,146.5,0,0,1,3.5-47.1,137.5,137.5,0,0,1,7.6-22.7c1.6-3.7,3.4-7.3,5.3-10.8a93.2,93.2,0,0,1,6.6-10.2,85.4,85.4,0,0,1,7.8-9.3,79.4,79.4,0,0,1,9.3-8.1l2.6-1.7,2.6-1.7a57.7,57.7,0,0,1,5.5-2.9l2.9-1.3,2.9-1.1,5.3-2a77.7,77.7,0,0,1,11.8-3.7c4.5-1,8.9-.7,12.5-.7h2.6l2.6-.3,5.5-1a69.4,69.4,0,0,0,10.4-3,52.4,52.4,0,0,0,4.8-2.3,38.7,38.7,0,0,0,4.3-2.7l1-.8.9-.9,1.1-.9,1.3-1.2a26.1,26.1,0,0,1,6.1-3.7,17.9,17.9,0,0,1,7.7-1.4,19.8,19.8,0,0,1,7.3,2,26.8,26.8,0,0,1,5.9,3.7,31.8,31.8,0,0,1,4.8,4.9,37.5,37.5,0,0,1,6.1,11.7,72.7,72.7,0,0,1,2.7,12.2c.5,4,.9,7.8,1.6,11.4a45.9,45.9,0,0,0,3,10.2,60.6,60.6,0,0,0,11.9,18l1,1,1.2,1.3,1,1.4,1,1.4a26,26,0,0,1,3,6.3,26.7,26.7,0,0,1,1.4,6.7,30.8,30.8,0,0,1-.1,6.8,46.7,46.7,0,0,1-1.3,6.5,26.5,26.5,0,0,1-1.1,3l-1.1,2.8c-1.5,3.7-3.3,7.2-5.1,10.7s-4,6.8-6.2,10.1A66.5,66.5,0,0,1,273.2,664.4Z" fill="#4d1329"/></svg>