<svg xmlns="http://www.w3.org/2000/svg" xmlns:xlink="http://www.w3.org/1999/xlink" width="1200" height="1200" viewBox="0 0 1200 1200"><defs><clipPath id="a"><path d="M119.3,494.1h0a7.9,7.9,0,0,1-9.7-5.9L8.2,72.6a8.1,8.1,0,0,1,5.9-9.7h0a8.1,8.1,0,0,1,9.7,5.9L125.1,484.4A7.9,7.9,0,0,1,119.3,494.1Z" fill="#a7a9ac" stroke="#4d1329" stroke-miterlimit="10" stroke-width="3.33"/></clipPath><clipPath id="b"><path d="M27.7,76.8c-.2-1,87.7-39.4,116.8-12.4S259.2,44.9,259.2,44.9s-43.8,128-104.6,109.4S48.1,166.2,51.7,181.9,27.7,76.8,27.7,76.8Z" fill="#a00022"/></clipPath><symbol id="c" viewBox="0 0 298.5 496"><path d="M119.3,494.1h0a7.9,7.9,0,0,1-9.7-5.9L8.2,72.6a8.1,8.1,0,0,1,5.9-9.7h0a8.1,8.1,0,0,1,9.7,5.9L125.1,484.4A7.9,7.9,0,0,1,119.3,494.1Z" fill="#939598" stroke="#4d1329" stroke-miterlimit="10" stroke-width="3.33"/><path d="M119.3,494.1h0a7.9,7.9,0,0,1-9.7-5.9L8.2,72.6a8.1,8.1,0,0,1,5.9-9.7h0a8.1,8.1,0,0,1,9.7,5.9L125.1,484.4A7.9,7.9,0,0,1,119.3,494.1Z" fill="#a7a9ac"/><g clip-path="url(#a)"><path d="M111.3,494.1h0a7.9,7.9,0,0,1-9.7-5.9L.2,72.6a8.1,8.1,0,0,1,5.9-9.7h0a8.1,8.1,0,0,1,9.7,5.9L117.1,484.4A7.9,7.9,0,0,1,111.3,494.1Z" fill="#58595b"/></g><path d="M119.3,494.1h0a7.9,7.9,0,0,1-9.7-5.9L8.2,72.6a8.1,8.1,0,0,1,5.9-9.7h0a8.1,8.1,0,0,1,9.7,5.9L125.1,484.4A7.9,7.9,0,0,1,119.3,494.1Z" fill="none" stroke="#4d1329" stroke-miterlimit="10" stroke-width="3.33"/><path d="M27.7,76.8c-.2-1,87.7-39.4,116.8-12.4S259.2,44.9,259.2,44.9s-43.8,128-104.6,109.4S48.1,166.2,51.7,181.9,27.7,76.8,27.7,76.8Z" fill="#a00022"/><g clip-path="url(#b)"><path d="M20.2,65.2a84.4,84.4,0,0,0,9.3,38.5,7.6,7.6,0,0,0,2.2,3c3.7,2.7,8.4-1.5,11.2-5.1a98.3,98.3,0,0,1,76.8-36.7c5.8.1,12,.8,16.6,4.4s7.2,10.1,12,13.9c6.5,5.1,15.7,4.5,23.8,2.7,32.2-6.9,59.8-26.7,89.8-40.1a218.9,218.9,0,0,1,25.5-9.7c4.4-1.4,9.5-3.3,10.8-7.8s-1.9-8.5-5.3-11.3c-10.2-8.5-24-10.8-37.1-12.4A617.2,617.2,0,0,0,145.4,1C116.4,2.6,86.9,6.5,61,19.5,47.7,26.2,35.2,35.7,28.3,48.9S21.1,79.4,30.4,91" fill="#d91f24"/><path d="M133.8,54.3c5.6,12.1,10.6,24.4,15.1,37,1.5,4.5,2.2,9.1,4,13.5,2.6,6.2,6.3,11.9,8.7,18.3,1.7,4.5,2.7,10.5-1,13.5s-10.8,0-15.8-2.8c-16.3-9.2-36.2-8.2-54.6-5.2-12.4,2-24.9,4.9-35.7,11.3s-25,19-18.3,32.6c7.7,15.6,19.9,24.3,37.3,24.8,13.3.4,26.5-2.5,39.4-5.9a452.8,452.8,0,0,0,50.5-16.8c8.7-3.4,17.4-7.2,26.6-9.2,4.9-1,9.9-1.5,14.7-2.9,13-4,23.4-16.7,31.6-27a333.1,333.1,0,0,0,36.2-56.3c8.5-16.6,15.6-34.3,17-52.9.5-6.9-.1-14.5-4.7-19.8a8,8,0,0,0-2.8-2c-3.9-1.1-6.7,3.5-8.2,7.3-5.9,15.1-14.9,28.2-23.2,42.1s-16.5,27.8-26.3,40.9c-4.8,6.5-9.9,12.8-16.1,18.1s-13.6,9.2-21.6,10.3a15.7,15.7,0,0,1-8.6-.6c-3.5-1.5-6-4.6-8.1-7.8a87,87,0,0,1-13-32.4,69.4,69.4,0,0,1-1.2-9c-.2-2.5.5-4.6.5-6.8,0-5.6-3-12.7-4.4-18.2-.9-3.1-2.1-6.6-5.2-7.6a9.5,9.5,0,0,0-5,.3,91.7,91.7,0,0,0-16,5.5" fill="#4f0010" opacity="0.4"/></g><path d="M51.9,185.3c-1,0-1.4-.6-1.7-1.5h-.1c0-.1-.1-.5-.2-1.2v-.2h0L25.9,77.3A2.2,2.2,0,0,1,27,74.9c2.5-1.7,24.8-11.4,50-17.3,22.8-5.5,53.3-9,68.7,5.2,27.8,25.8,111.8-19.2,112.7-19.7l4.3-2.3L261,45.6c-.1.3-11.2,32.6-29.7,62.1-24.8,39.6-51.5,56.4-77.2,48.5-46.4-14.2-82.5.5-95.4,13.9-4,4.1-5.9,8.2-5.2,11.2v.5l.2,1h0c.1,1.1,0,2.1-1.4,2.5ZM29.9,77.8l21.7,95.3a26.4,26.4,0,0,1,4.5-5.9c13.5-14,51.1-29.6,99-14.9C206.9,168.2,247,71.9,255.7,49c-13.4,6.8-53.6,25.8-84.4,25.8-11.2,0-21.1-2.4-28.1-8.9C117.4,42,40.2,72.7,29.9,77.8Z" fill="#4d1329"/></symbol></defs><use width="298.5" height="496" transform="matrix(1.29, 0.14, -0.14, 1.29, 119.2, 164.8)" xlink:href="#c"/></svg>