<svg xmlns="http://www.w3.org/2000/svg" xmlns:xlink="http://www.w3.org/1999/xlink" width="1200" height="1200" viewBox="0 0 1200 1200"><defs><symbol id="a" viewBox="0 0 90.4 195.6"><path d="M42.7,35.2c-.7.3-1.1.9-1.4,2.1q-14.4,56.6-29,113.1a15.3,15.3,0,0,0-.3,3c.6,9.3,1.2,18.5,1.7,27.8.2,2.9.4,5.8.6,9l.8-1C21.6,179,28,168.7,34.5,158.4a8.2,8.2,0,0,0,1-2.5c1.1-4.1,2.1-8.2,3.2-12.2Q51.6,93.3,64.6,42.9c.3-1.3.3-2-.3-2.6C58.4,33.6,51.2,31.8,42.7,35.2Z" fill="#ffcd2b" fill-rule="evenodd"/><path d="M27,148.9l8.1,8.2a5.6,5.6,0,0,0,.4-1.2c1.1-4.1,2.1-8.2,3.2-12.2Q51.6,93.3,64.6,42.9c.3-1.3.3-2-.3-2.6a18.4,18.4,0,0,0-1.9-2,57.5,57.5,0,0,0-6.1.9Z" fill="#ef940f"/><path d="M43.4,36.8c-.1,0,0-.1-.1.1a2.4,2.4,0,0,0-.3.7L42.4,40l-1.2,4.8-2.3,9.7L34.6,74c-2.9,12.9-6,25.8-9.5,38.6s-7.3,25.6-11.2,38.2a7.6,7.6,0,0,0-.3,2.1,4.7,4.7,0,0,0,0,1.2v6.2l.3,9.9c.2,6.7.4,13.3.9,19.9h0l-1-.3.4-.6.4-.5.6-1.3,1.4-2.5,2.8-5.1,5.6-10,5.6-10,1.5-2.5V157h.1l.2-.5.3-1.1c.4-1.8.8-3.7,1.3-5.5l11.1-44.5c3.8-14.9,7.6-29.7,11.9-44.4l3.2-11L62,44.4l.4-1.4a10.4,10.4,0,0,1,.3-1.2c0-.3,0-.3.1-.2h-.1l-.5-.5a15.9,15.9,0,0,0-3.9-3.4,13.1,13.1,0,0,0-4.7-2A18.1,18.1,0,0,0,43.4,36.8Zm-1.3-3.2a22,22,0,0,1,12.2-1.5,21.1,21.1,0,0,1,10.9,6.1l.5.6h.1l.3.3a2.1,2.1,0,0,0,.4.6,8.3,8.3,0,0,1,.4,1.5,3.7,3.7,0,0,1-.1,1.1c0,.3-.1.6-.1.9l-.2.7-.3,1.4L64.9,51,62.4,62.2c-3.4,15-7.2,29.8-11,44.6L39.6,151.2l-1.5,5.6a11.1,11.1,0,0,1-.7,1.6,3.6,3.6,0,0,1-.4.9l-.3.4-.2.4-1.6,2.3-6.6,9.4-6.6,9.4-3.4,4.7-1.7,2.3-.8,1.2a1.5,1.5,0,0,1-.5.6l-.5.5-1,1v-1.3h0c-.2-3.3-.5-6.6-.8-9.9s-.5-6.6-.9-9.9l-.9-10-.5-4.9-.2-1.3c0-.4-.1-.8-.1-1.3a14.3,14.3,0,0,1,.3-2.9c2.7-13,5.5-26,8.6-38.9s6.6-25.7,10.3-38.4l5.6-19.2L37.8,44l1.3-4.9.6-2.4a7.1,7.1,0,0,1,.7-1.6A3.6,3.6,0,0,1,42.1,33.6Z" fill="#4d1329"/><path d="M70.4,8l-.3-.6c-3.6-4.3-8.2-5.5-13.3-4.6-2,.4-4.1,2-6.2,3.3a5.9,5.9,0,0,0-1.4,2.5C48.1,12.8,47.1,17,46,21.1c-.7,2.5-1.4,5-2.3,7.8,9.2-3.2,16.7-1.3,23,5.3.2-.9.4-1.6.6-2.3,1.3-4.9,2.3-10,3.9-14.8S71.9,10,70.4,8Z" fill="#c92a2a" fill-rule="evenodd"/><g opacity="0.9"><path d="M69,9a10.2,10.2,0,0,0-3.8-3.1A10.9,10.9,0,0,0,60.5,5L58,5.3l-.6.2H57l-.8.4L54,7.4l-1.2.8-.3.3h-.1l.3-.3h0l-.3.8v.4l-.2.7L51.5,13c-.4,1.9-.8,3.7-1.3,5.6l-.9,2.8c-.3.9-.7,1.8-1,2.8a10.2,10.2,0,0,1-4,4.9h0l-.8-.8a28,28,0,0,1,6.2-2,21.5,21.5,0,0,1,6.7.1,17.9,17.9,0,0,1,6.3,2.4,24.3,24.3,0,0,1,5.2,4.3h0l-2.8.7c.2-1.1.6-2.2.9-3.3l.8-3.3c.5-2.2,1.1-4.4,1.7-6.6l.9-3.4a12.2,12.2,0,0,0,.8-3,6.6,6.6,0,0,0,0-2.8A6,6,0,0,0,69,9Zm2.8-2.1a10.1,10.1,0,0,1,1.7,3.8,10.7,10.7,0,0,1-.1,4,20,20,0,0,1-.9,3.5l-.9,3.2C71,23.6,70.5,25.8,70,28s-1,4.5-1.8,6.6l-.8,2.5-1.9-1.8h0A31.6,31.6,0,0,0,61,31.6a20.1,20.1,0,0,0-5.2-2.3,18.8,18.8,0,0,0-5.8-.6,41.1,41.1,0,0,0-6,.8l-1.4.3.6-1h0a10.3,10.3,0,0,1-.8-6.3c.4-1.8.7-3.7,1.2-5.6s.9-3.7,1.5-5.6L46,8.5l.2-.7.3-1a16.2,16.2,0,0,1,1-1.8l.5-.6a5.7,5.7,0,0,1,.8-.8h.8l1.2-.8L53.7.9A12.7,12.7,0,0,1,55.5.3L56.6.1h4.1a15.7,15.7,0,0,1,6.4,2.2,14,14,0,0,1,2.6,2.1A16.4,16.4,0,0,1,71.8,6.9Z" fill="#4d1329"/></g><path d="M35.3,156.6c-5.2-9.3-14-11.5-23.1-5.9a12.7,12.7,0,0,0-.2,2.7c.6,9.3,1.2,18.5,1.7,27.8.2,2.9.4,5.8.6,9l.8-1C21.6,179,28,168.7,34.5,158.4A7.5,7.5,0,0,0,35.3,156.6Z" fill="#fdf6af" fill-rule="evenodd"/><path d="M32.6,156.4c-5.7-6.5-11.5-7.2-19.1-3.4.1-.1.3,30.5.3,30.5S25.6,169.6,32.6,156.4ZM10,160c.1-1.7.1-3.3.2-5a21.1,21.1,0,0,1,.2-2.5,6.2,6.2,0,0,1,.1-1.3v-1.1a1.9,1.9,0,0,1,.2-.7h0v-.6l1.3-1a15.1,15.1,0,0,1,15.2-2.1,14.8,14.8,0,0,1,6.1,4.9,26.8,26.8,0,0,1,1.8,3.3,18.9,18.9,0,0,1,1,3.6v.2h0v.3a1.9,1.9,0,0,0-.2.7l-.6,1.1L34,162.1l-2.5,4.2c-1.7,2.9-3.5,5.7-5.3,8.4s-3.5,5.6-5.4,8.3-5.9,7.8-6.2,8.1h0l-3,4.5" fill="#4d1329"/><path d="M14.3,190.2l.8-1,8.1-12.8c-1.3-4.2-4.3-6-7.8-3.9a10.5,10.5,0,0,0-2.1,1.7c.2,2.6.3,5.1.4,7S14.1,187,14.3,190.2Z" fill="#4d1329" fill-rule="evenodd"/><path d="M44.3,24.9l-1.4,5c-.6,2.6-1.4,5.2-2.3,8.2,9.6-3.4,17.3-1.5,23.9,5.5l.7-2.4C66.1,37.5,67,33.7,68,30,61.3,23.8,53.5,22,44.3,24.9Z" fill="#96784d" fill-rule="evenodd"/><g opacity="0.9"><path d="M45.6,26.1a22.9,22.9,0,0,1-.7,2.8l-.4,1.4L44,31.9l-2.1,6.5-1.7-1.6A18.5,18.5,0,0,1,46.8,35a20.1,20.1,0,0,1,6.9.8,20.6,20.6,0,0,1,6.1,3.1A43.3,43.3,0,0,1,65,43.1l-1,.3c1.1-4.5,1.3-9.2,2.4-13.8h0l.5,1.6-5.4-2.6A35.6,35.6,0,0,0,56.2,27a31.9,31.9,0,0,0-5.5-.6H46.5c0-.1,0-.1-.1-.1Zm-2.7-2.5a11.6,11.6,0,0,1,2.2-1.3l.5-.2H46l.9-.3a18.9,18.9,0,0,1,3.4-.9,19.4,19.4,0,0,1,7.2.2,19.9,19.9,0,0,1,6.7,2.8,18.3,18.3,0,0,1,4.9,5.1l.6,1-.2.6h0c-.6,2.2-1.4,4.4-2.2,6.6l-1.1,3.3c-.4,1.1-.8,2.2-1.1,3.3l-.3,1-.7-.7a17.6,17.6,0,0,0-4.9-4.1,18.3,18.3,0,0,0-6-1.9,25.1,25.1,0,0,0-6.1.2c-2,.2-4,.7-6.1,1.1l-2.1.4.5-2L41,31.1l.8-3.6C42.2,26.2,42.5,24.9,42.9,23.6Z" fill="#4d1329"/></g><path d="M23.2,135a54.6,54.6,0,0,1,.4-5.8l.9-5.6c.3-1.8.7-3.7,1.1-5.5a49.4,49.4,0,0,1,1.5-5.5c1.3-3.6,2.9-7,4-10.7a68.3,68.3,0,0,0,2.3-11.1c.2-1.8.5-3.7.8-5.6s.7-3.7,1.1-5.6c.7-3.7,1.5-7.4,2.5-11s2.1-7.2,3.4-10.8a106.9,106.9,0,0,1,4.3-10.6H46a104.5,104.5,0,0,1-1.3,11.4c-.5,3.7-1.3,7.5-2.1,11.1s-2,7.3-3.1,10.9c-.5,1.8-1.1,3.6-1.7,5.4s-1.3,3.6-2,5.4a79.3,79.3,0,0,0-3.3,10.8c-.8,3.7-1,7.5-1.6,11.3a36.5,36.5,0,0,1-1.3,5.5c-.5,1.8-1,3.6-1.6,5.4a48.1,48.1,0,0,1-2,5.3,49.9,49.9,0,0,1-2.3,5.3Z" fill="#fff"/></symbol></defs><use width="90.4" height="195.64" transform="translate(69.8 428.7) rotate(-15) scale(2)" xlink:href="#a"/><path d="M1176.5,412.3c-.7.9-2.1.5-3.2.1s-2.6-.4-2.9.7" fill="none" stroke="#4d1329" stroke-miterlimit="10"/></svg>