<svg xmlns="http://www.w3.org/2000/svg" xmlns:xlink="http://www.w3.org/1999/xlink" width="1200" height="1200" viewBox="0 0 1200 1200"><defs><clipPath id="a"><path d="M145.7,520.4c8.7,10,23.2,10.4,32.1,1.3s11.4-26.1,6.3-39.3a31.2,31.2,0,0,0-9.8-14c-4.7-3.5-10.2-4.9-14.7-8.6-10.6-8.5-13.2-26-14.7-41.4q-8.4-90.3-10.9-181c-.7-27.1-.8-55.5,8.8-79.5,6.3-16,16.8-29.3,21-46.5S162,70.6,147.5,67.7s-30.8,20.4-45.4,11.7C91,72.9,87.7,50.9,75.6,49.2c-3.4-.6-6.9.9-9.8,3.2-12.1,9.3-14.8,30.5-11,48S67.5,133,74.5,149c22.5,51.4,26.4,111.1,29.8,168.8,2.9,50.5,5.6,103.3-10.2,149.3-5.5,16-13.2,31.3-14.5,48.8s7,38.2,21.2,40.4c23.3,3.6,32.3-41.3,55.1-46.7" fill="#d1ccc9" stroke="#4d1329" stroke-miterlimit="10" stroke-width="6.45"/></clipPath><symbol id="b" viewBox="0 0 252.2 576.3"><path d="M145.7,520.4c8.7,10,23.2,10.4,32.1,1.3s11.4-26.1,6.3-39.3a31.2,31.2,0,0,0-9.8-14c-4.7-3.5-10.2-4.9-14.7-8.6-10.6-8.5-13.2-26-14.7-41.4q-8.4-90.3-10.9-181c-.7-27.1-.8-55.5,8.8-79.5,6.3-16,16.8-29.3,21-46.5S162,70.6,147.5,67.7s-30.8,20.4-45.4,11.7C91,72.9,87.7,50.9,75.6,49.2c-3.4-.6-6.9.9-9.8,3.2-12.1,9.3-14.8,30.5-11,48S67.5,133,74.5,149c22.5,51.4,26.4,111.1,29.8,168.8,2.9,50.5,5.6,103.3-10.2,149.3-5.5,16-13.2,31.3-14.5,48.8s7,38.2,21.2,40.4c23.3,3.6,32.3-41.3,55.1-46.7" fill="#d1ccc9"/><g clip-path="url(#a)"><path d="M82,109.2c4.4,2.5,9.3,4.5,12.4,8.5s3.9,9.6,4.4,14.7q16.7,163.5,24,327.8c.3,7.4.5,15.4-3.7,21.5-6.9,10.1-22.7,10.9-29.6,21s-.8,24.5,10.1,29,24-.3,31.4-9.3c.7,18.7-7.5,38.4-23.4,48.2s-39.5,7-50.4-8.2c-9-12.6-7.9-29.5-6.1-44.9,4.9-42.3,12-84.3,15.3-126.8,6.4-81.7-1.6-164.3-21-243.9-4-16-23.1-80.6,1.5-89.4C58.7,53.3,65.5,99.7,82,109.2Z" fill="#aca5a0"/><path d="M72.9,39.5a39.8,39.8,0,0,0,6.4,39,39.8,39.8,0,0,0,37.2,13.2c8.9-1.7,17-6.5,25.5-9.8,2-.8,4.2-1.5,6.3-1,4.3,1.1,5.8,6.6,6,11a82,82,0,0,1-2.3,24.7c-1.4,6-3.4,12.9.5,17.6s9.3,4.5,13.9,2.4,8.1-6.1,11.1-10.1a124.9,124.9,0,0,0,23.2-86.7c-.9-7.3-2.6-14.9-7.7-20s-14.5-7.1-22.6-8.2L86,.7C76.5-.6,64.8-.9,59.5,7.1" fill="#f1f2f2"/><path d="M168.5,536.9a43.9,43.9,0,0,0,16.4-11c14-14.9,31.6-49.1,13.7-66.1-8.4-8-19.8-12.5-27.7-21-5.8-6.2-12.5-15.3-20.4-12.2-4.5,1.7-6.6,6.7-7.9,11.3-2.8,10.5-3,23.1,4.7,30.8,4.3,4.4,10.4,6.4,15.6,9.6s10.1,8.9,8.8,14.9C168.7,508.2,179.1,520.5,168.5,536.9Z" fill="#f1f2f2"/></g><path d="M145.7,520.4c8.7,10,23.2,10.4,32.1,1.3s11.4-26.1,6.3-39.3a31.2,31.2,0,0,0-9.8-14c-4.7-3.5-10.2-4.9-14.7-8.6-10.6-8.5-13.2-26-14.7-41.4q-8.4-90.3-10.9-181c-.7-27.1-.8-55.5,8.8-79.5,6.3-16,16.8-29.3,21-46.5S162,70.6,147.5,67.7s-30.8,20.4-45.4,11.7C91,72.9,87.7,50.9,75.6,49.2c-3.4-.6-6.9.9-9.8,3.2-12.1,9.3-14.8,30.5-11,48S67.5,133,74.5,149c22.5,51.4,26.4,111.1,29.8,168.8,2.9,50.5,5.6,103.3-10.2,149.3-5.5,16-13.2,31.3-14.5,48.8s7,38.2,21.2,40.4c23.3,3.6,32.3-41.3,55.1-46.7" fill="none" stroke="#4d1329" stroke-miterlimit="10" stroke-width="6.45"/></symbol></defs><use width="252.2" height="576.32" transform="translate(754.4 176.1) rotate(4.3)" xlink:href="#b"/></svg>