<svg xmlns="http://www.w3.org/2000/svg" xmlns:xlink="http://www.w3.org/1999/xlink" width="1200" height="1200" viewBox="0 0 1200 1200"><defs><clipPath id="a"><polygon points="27 128.6 83 178.8 105.6 110 44.3 15.5 27 128.6" fill="#a9aec0" stroke="#4d1329" stroke-miterlimit="10" stroke-width="5.48"/></clipPath><clipPath id="b"><path d="M55.7,172.1C70,183.5,72.5,211.8,76.5,228c5.6,23,10.7,46.1,15.5,69.3,9.5,46.4,17.6,93.1,26.3,139.6q32.8,175.8,60.3,352.5,7.5,47.7,14.3,95.4c4.6,32.8,11.3,65.1,3.8,98a10.3,10.3,0,0,0-.3,4.6,9,9,0,0,0,2.7,4.2c3,3.1,6.4,6.2,10.6,7.2s9.4-1.1,10.5-5.4c-1.6,6.4,16.4,1.5,18.5-.7,5.7-6.1,3.8-16.8,2.8-24.2-.7-5.4-1.9-10.7-2.9-16.1l-7-39-20-112.2L158.9,506.8c-4.7-26-17.2-54.8-6.9-80.7,2.2-5.4,5-10.4,6.4-16s.9-12-2.9-16.2c-2.2.4-3.8,2.4-5,4.4s-2.2,4.2-4.2,5.3c-7.2,4.3-17.8-66.5-19.3-75.3-5.3-29.4-10.4-58.8-15.8-88.2-3.6-19.7-14.9-40.9-9.6-61.5,1.5-5.4,4.5-10.4,5.4-16a22,22,0,0,0-8.4-21.1,21.5,21.5,0,0,0-22.4-1.4c-3.5,1.9-6.9,4.9-10.9,4.4s-9.2-6.4-13.4-3.9a68.9,68.9,0,0,1-3.4,26.3c1.4,1.9,3.7,2.8,5.6,4.1Z" fill="#8a4c2e" stroke="#4d1329" stroke-miterlimit="10" stroke-width="5.48"/></clipPath><symbol id="c" viewBox="0 0 246.1 1013.2"><polygon points="27 128.6 83 178.8 105.6 110 44.3 15.5 27 128.6" fill="#a9aec0"/><g clip-path="url(#a)"><polygon points="40.8 0 75.4 159.5 115 112.5 40.8 0" fill="#fff"/></g><polygon points="27 128.6 83 178.8 105.6 110 44.3 15.5 27 128.6" fill="none" stroke="#4d1329" stroke-miterlimit="10" stroke-width="5.48"/><path d="M55.7,172.1C70,183.5,72.5,211.8,76.5,228c5.6,23,10.7,46.1,15.5,69.3,9.5,46.4,17.6,93.1,26.3,139.6q32.8,175.8,60.3,352.5,7.5,47.7,14.3,95.4c4.6,32.8,11.3,65.1,3.8,98a10.3,10.3,0,0,0-.3,4.6,9,9,0,0,0,2.7,4.2c3,3.1,6.4,6.2,10.6,7.2s9.4-1.1,10.5-5.4c-1.6,6.4,16.4,1.5,18.5-.7,5.7-6.1,3.8-16.8,2.8-24.2-.7-5.4-1.9-10.7-2.9-16.1l-7-39-20-112.2L158.9,506.8c-4.7-26-17.2-54.8-6.9-80.7,2.2-5.4,5-10.4,6.4-16s.9-12-2.9-16.2c-2.2.4-3.8,2.4-5,4.4s-2.2,4.2-4.2,5.3c-7.2,4.3-17.8-66.5-19.3-75.3-5.3-29.4-10.4-58.8-15.8-88.2-3.6-19.7-14.9-40.9-9.6-61.5,1.5-5.4,4.5-10.4,5.4-16a22,22,0,0,0-8.4-21.1,21.5,21.5,0,0,0-22.4-1.4c-3.5,1.9-6.9,4.9-10.9,4.4s-9.2-6.4-13.4-3.9a68.9,68.9,0,0,1-3.4,26.3c1.4,1.9,3.7,2.8,5.6,4.1Z" fill="#8a4c2e"/><g clip-path="url(#b)"><path d="M140.6,438.6c16.2,105.9,13.4,215,41.2,318.5,7.8,29.1,18,57.7,23.5,87.4,6.8,35.9,6.6,72.8,3,109.1-.8,7.4-1.6,15.1.9,22.1s9.5,13,16.8,11.7c3.4-.6,6.6-2.8,10.1-2.9,9.5-.5,13.2,14.2,6.8,21.3s-17.1,7.8-26.6,7.2c-19.5-1.2-40.4-7.1-51.9-22.9-6.1-8.5-8.9-19-11.5-29.2-18.3-71.3-36.6-142.8-50.5-215.1C77.7,617.2,67.3,486.5,55,356.3,48.8,290.5,38.4,224.8,32.7,159c-2.3-26.4,11.4-26.6,28-6.9s21.5,54.8,29,79.3C110.5,299.4,129.7,368.2,140.6,438.6Z" fill="#4d1329" opacity="0.4"/></g><path d="M55.7,172.1C70,183.5,72.5,211.8,76.5,228c5.6,23,10.7,46.1,15.5,69.3,9.5,46.4,17.6,93.1,26.3,139.6q32.8,175.8,60.3,352.5,7.5,47.7,14.3,95.4c4.6,32.8,11.3,65.1,3.8,98a10.3,10.3,0,0,0-.3,4.6,9,9,0,0,0,2.7,4.2c3,3.1,6.4,6.2,10.6,7.2s9.4-1.1,10.5-5.4c-1.6,6.4,16.4,1.5,18.5-.7,5.7-6.1,3.8-16.8,2.8-24.2-.7-5.4-1.9-10.7-2.9-16.1l-7-39-20-112.2L158.9,506.8c-4.7-26-17.2-54.8-6.9-80.7,2.2-5.4,5-10.4,6.4-16s.9-12-2.9-16.2c-2.2.4-3.8,2.4-5,4.4s-2.2,4.2-4.2,5.3c-7.2,4.3-17.8-66.5-19.3-75.3-5.3-29.4-10.4-58.8-15.8-88.2-3.6-19.7-14.9-40.9-9.6-61.5,1.5-5.4,4.5-10.4,5.4-16a22,22,0,0,0-8.4-21.1,21.5,21.5,0,0,0-22.4-1.4c-3.5,1.9-6.9,4.9-10.9,4.4s-9.2-6.4-13.4-3.9a68.9,68.9,0,0,1-3.4,26.3c1.4,1.9,3.7,2.8,5.6,4.1Z" fill="none" stroke="#4d1329" stroke-miterlimit="10" stroke-width="5.48"/></symbol></defs><use width="246.1" height="1013.21" transform="translate(150.6 50.2) rotate(11.7)" xlink:href="#c"/></svg>