<svg xmlns="http://www.w3.org/2000/svg" xmlns:xlink="http://www.w3.org/1999/xlink" width="1200" height="1200" viewBox="0 0 1200 1200"><defs><clipPath id="a"><path d="M372.2,440c2.9,2.2,5.7,4.5,8.7,6.6l8.8,6.4,4.5,3.1,4.4,3.2c5.9,4.2,11.8,8.4,17.9,12.5a197.6,197.6,0,0,0,18.7,11.3c12.9,6.9,28.3,14.8,42,19.7,48.5,15.7,87.7,14.7,129.2-.6,20.1-7.5,34.6-19.6,49.7-34.6,2.5-2.5,4.9-5.2,7.4-7.8s4.7-5.4,7.1-8.1l5,4.3c3.3-15.9,3.8-36.6-6.5-58.1-21.8-45.3-16.3-53.5-13.6-78s-18.2-63.6-56.3-79.9-110-26.7-162.1,18.4-63.9,114.1-66.6,142.3c-1.2,12.3-2.1,25.2-2.6,35.7Z" fill="#49507a"/></clipPath><clipPath id="b"><path d="M541.7,390.1s29.1-59.3-10.9-85.4-80.5,10.3-89.5,41.8,3,47.8,3,47.8S500,374.9,541.7,390.1Z" fill="#fff"/></clipPath><clipPath id="c"><path d="M594.8,382.7a12.2,12.2,0,0,1-2.9-7.1c-1.7-11.5-1.9-24.4,4-34.8,14.5-25.8,47.2-15.5,52,12.1l3.1,19s-6.1,17.3-24.6,17.9a68.4,68.4,0,0,1-17.4-2c-4.6-1-10.7-1.4-14.2-5Z" fill="#fff"/></clipPath></defs><path d="M372.2,440c2.9,2.2,5.7,4.5,8.7,6.6l8.8,6.4,4.5,3.1,4.4,3.2c5.9,4.2,11.8,8.4,17.9,12.5a197.6,197.6,0,0,0,18.7,11.3c12.9,6.9,28.3,14.8,42,19.7,48.5,15.7,87.7,14.7,129.2-.6,20.1-7.5,34.6-19.6,49.7-34.6,2.5-2.5,4.9-5.2,7.4-7.8s4.7-5.4,7.1-8.1l5,4.3c3.3-15.9,3.8-36.6-6.5-58.1-21.8-45.3-16.3-53.5-13.6-78s-18.2-63.6-56.3-79.9-110-26.7-162.1,18.4-63.9,114.1-66.6,142.3c-1.2,12.3-2.1,25.2-2.6,35.7Z" fill="#49507a"/><g clip-path="url(#a)"><path d="M470.7,462.4c25.6,10.6,52.3,20.9,80,19.9,22.7-.8,44.5-9.2,65-19a477.9,477.9,0,0,0,103.6-66.9c4.1,34.9-11,70.2-35,95.8s-56,42.5-89,54.4a384.4,384.4,0,0,1-134.4,22.8c-38.9-.4-81.3-8.7-106-38.8-17.3-20.9-53.4-129.8-12.7-137,18-3.3,39.7,16.9,52.5,26.6C418.4,438.1,443.3,451,470.7,462.4Z" fill="#3b4163" opacity="0.6"/></g><path d="M362.1,437.3c2.9-25.7,5.5-51.7,11.1-77.5a256.6,256.6,0,0,1,10.9-38,175.8,175.8,0,0,1,18-35.7A93,93,0,0,1,408,278a95.1,95.1,0,0,1,6.7-7.4,156.8,156.8,0,0,1,15.2-13.1l7.9-6,4-2.8,4.1-2.8a163.4,163.4,0,0,1,17.4-9.6,164.4,164.4,0,0,1,97.4-13.5,163.3,163.3,0,0,1,19.6,4.4,158.5,158.5,0,0,1,19,6.7,98.1,98.1,0,0,1,18.1,9.6,96.6,96.6,0,0,1,28.8,29.2,88.1,88.1,0,0,1,13.3,38.9,67.2,67.2,0,0,1-1.6,20.9l-.7,2.5-.7,2.2-.5,2.2-.4,2.2a65.4,65.4,0,0,0-.9,8.9,64.6,64.6,0,0,0,2.5,18,67.4,67.4,0,0,0,3,8.6l2.1,4.1,1.2,1.8,1.5,2c1.8,2.7,3.7,5.5,5.4,8.3s1.6,2.9,2.5,4.4,1.5,3,2.4,4.4l1.3,2.1a16.4,16.4,0,0,1,1.4,2.2,25.3,25.3,0,0,1,1.3,2.2,24.4,24.4,0,0,1,1,2.4,67.2,67.2,0,0,1,2.8,10,57,57,0,0,1,.1,21,52.7,52.7,0,0,1-5.4,15l-1.4,2.4-.8,1.1-.4.6-.3.3-.3.4-7.4-6.1.5-.7.6-.8c.3-.6.7-1.2,1-1.9a35.4,35.4,0,0,0,1.9-3.9,49.8,49.8,0,0,0,2.6-8.3,51.8,51.8,0,0,0,1.2-8.8,53.2,53.2,0,0,0-.5-8.9,66.8,66.8,0,0,0-1.8-8.9c-.9-2.9-1.2-6.1-2.2-9.1a56.3,56.3,0,0,0-4.6-8.3,82.6,82.6,0,0,0-5.6-7.6l-1.6-1.9a19.9,19.9,0,0,1-1.6-2,35.9,35.9,0,0,1-2.8-4.4,79,79,0,0,1-4.4-9.3,63.6,63.6,0,0,1-3.9-20.3,71.7,71.7,0,0,1,.7-10.4,20.2,20.2,0,0,1,.4-2.6l.5-2.6.6-2.5.5-2.2a52.5,52.5,0,0,0,.7-17.7,76.8,76.8,0,0,0-12.8-33.7c-1.6-2.5-3.5-4.9-5.4-7.3s-4-4.6-6.2-6.7a98.5,98.5,0,0,0-14.2-11.4,103.9,103.9,0,0,0-16.2-8.5c-5.8-2.4-11.7-4.6-17.6-6.4a187.9,187.9,0,0,0-18.3-4.5,166.7,166.7,0,0,0-18.6-2.7,170.7,170.7,0,0,0-18.9-.8,154.7,154.7,0,0,0-37.5,4.9,147.2,147.2,0,0,0-18,6.2,117.2,117.2,0,0,0-16.9,8.7,90.3,90.3,0,0,0-15.3,11.3A106.6,106.6,0,0,0,420.9,276c-3.7,5-7.3,10.1-10.8,15.4a176.7,176.7,0,0,0-16.4,33.9,285.9,285.9,0,0,0-10.2,36.8c-5.4,25-8.3,50.6-11.9,76.4Z" fill="#501b2b"/><path d="M541.7,390.1s29.1-59.3-10.9-85.4-80.5,10.3-89.5,41.8,3,47.8,3,47.8S500,374.9,541.7,390.1Z" fill="#fff"/><g clip-path="url(#b)"><path d="M527.4,364.7c2.9,1.1,5.6,2.7,8.6,3.5,8,2.2,16.7-1.7,22.5-7.7s9.2-13.7,12.6-21.3c13.9,30.3-2.6,67.5-28.6,88.3-19.1,15.4-43.6,24.5-68.1,23.4s-48.8-12.7-63.4-32.4c-4.7-6.3-8.4-13.4-9.2-21.2-1.7-16.1,7-44.1,16.6-57.2,3.3-4.6,8-14.9,15.8-13.4,9.4,1.8,2.3,7.4,5.8,13.6,9.8,17.2,10,27.9,33.7,28.8C491.8,369.7,509.1,357.7,527.4,364.7Z" fill="#7e60a1" opacity="0.3"/></g><path d="M441.3,346.5l-.6,6.2c-.1,2-.3,4-.4,6.1s-.1,4,.1,6,0,2,.1,3l.3,2.9a72.1,72.1,0,0,0,2.4,11.4,20,20,0,0,0,1,2.6l.5,1.3.6,1.3a2.7,2.7,0,0,0,.6,1.2l.6,1.2a7.5,7.5,0,0,0,.7,1.2l.3.5.3.3-4.9-1.5c4.1-1.5,8-2.8,12.1-3.9s8.2-2,12.3-2.9a163.6,163.6,0,0,1,25.2-3c4.2-.1,8.5-.1,12.7.1s8.5.8,12.6,1.5a89.5,89.5,0,0,1,12.4,3,65.9,65.9,0,0,1,11.5,5.1c-4.1-.7-8.2-1.3-12.2-1.7s-8.2-.6-12.2-.6-8.1,0-12.1.3-8.1.5-12.1,1c-8,.9-16,2.1-23.9,3.7l-11.9,2.6c-3.9.9-7.9,1.9-11.6,3l-3.2,1-1.7-2.5-.6-.9-.4-.9-.8-1.5-.7-1.6-.6-1.6a14.2,14.2,0,0,1-.5-1.6l-.5-1.6c-.3-1.1-.5-2.2-.7-3.3a51.8,51.8,0,0,1-.9-13l.2-3.2c.1-1.1.3-2.1.4-3.2a61.9,61.9,0,0,1,1.3-6.2c.2-1,.6-2,.9-3l1-3A58.9,58.9,0,0,1,441.3,346.5Z" fill="#501b2b"/><path d="M439,343.7A99.6,99.6,0,0,1,449.2,323c11.4-17.4,30-27.5,50.6-28.8,15.5-1,26.7,4.1,38.1,14.4a56.6,56.6,0,0,1,12.3,15.8c11.8,23,.3,40.5.3,40.6,2.4-3.7,1.3-12.5.9-16.5a52.9,52.9,0,0,0-14.8-32.8c-20-20.4-50.4-19.8-71.2-.5-7.8,7.2-13.8,16.2-18.7,25.6s-7.5,16.7-8.1,25.7c-.3,4.8,1.9,10.8-2.3,13.3.6-.4-.9-12.6-.8-14.2.5-5,.2-10,1.4-14.9Z" fill="#501b2b"/><path d="M594.8,382.7a12.2,12.2,0,0,1-2.9-7.1c-1.7-11.5-1.9-24.4,4-34.8,14.5-25.8,47.2-15.5,52,12.1l3.1,19s-6.1,17.3-24.6,17.9a68.4,68.4,0,0,1-17.4-2c-4.6-1-10.7-1.4-14.2-5Z" fill="#fff"/><g clip-path="url(#c)"><path d="M637.6,363.6c7-6.3,11.7-14.6,16.3-22.8,8.4,5.1,13.2,15.2,13.3,25s-3.9,19.5-9.8,27.5c-17.1,22.7-51.1,30.8-76.6,18.3-4.6-2.3-9-5.2-12-9.3-9-12.3-8.5-67.5,15.8-62.1,9.8,2.1,8.7,18.8,15.9,25.4C611.8,375.7,626.8,373.5,637.6,363.6Z" fill="#7e60a1" opacity="0.3"/></g><path d="M594.8,382.8c-2-1.2-3.3-3.5-4.1-5.7a33.3,33.3,0,0,1-1.2-6.9,56.4,56.4,0,0,1,.6-13.6,65.9,65.9,0,0,1,3.2-13.1,37.5,37.5,0,0,1,6.6-11.9,124.2,124.2,0,0,0-3,12.8q-1.2,6.5-2.1,12.9c-.6,4.3-1.1,8.6-1.3,12.9-.1,1.1-.1,2.1-.1,3.2v3.2A15.5,15.5,0,0,0,594.8,382.8Z" fill="#501b2b"/><path d="M651,371.9a26.3,26.3,0,0,1-8.7,14.3,25.5,25.5,0,0,1-7.5,4.4,33.9,33.9,0,0,1-4.3,1.1,16.6,16.6,0,0,1-2.2.3l-2.2.2a58.4,58.4,0,0,1-16.6-2.3l-1.9-.6-1.9-.5-4-1.3a18.8,18.8,0,0,1-3.8-1.8,12.3,12.3,0,0,1-3.1-2.9,18.5,18.5,0,0,0,7.5,2.5l4,.4,2,.2,2.1.3a91.1,91.1,0,0,0,15.6,1.2l1.9-.2h1.8c1.2-.3,2.5-.4,3.6-.8a12.7,12.7,0,0,0,1.8-.6l1.7-.7,1.7-.9.8-.4.8-.5A36.8,36.8,0,0,0,651,371.9Z" fill="#501b2b"/><path d="M649.4,353.8s-9.6-28.8-32.6-25.2-26.1,30.9-26.1,30.9.6-28.7,17.3-34.8S642.5,323.8,649.4,353.8Z" fill="#501b2b"/><circle cx="574.9" cy="302.1" r="19.3" fill="#e8cdcd"/><path d="M560.2,401l29.5-3.4s-13.6-27.3-14.8-45.5Z" fill="#e8cdcd"/><path d="M427.6,399.7s63.1,37.2,111.2,7l2.5,25.3S491,460.9,425,417.8Z" fill="#e8cdcd"/><path d="M427.6,399.7s63.1,37.2,111.2,7l2.5,25.3S491,460.9,425,417.8Z" fill="#e8cdcd"/><path d="M606.8,402.1l5.7,19.4s45.4,1.1,52.2-26.2l-9-12.5S648.8,409,606.8,402.1Z" fill="#e8cdcd"/><circle cx="444.2" cy="458.6" r="12.1" fill="#e8cdcd"/><circle cx="488.9" cy="469.6" r="12.1" fill="#e8cdcd"/><circle cx="532.1" cy="465.8" r="12.1" fill="#e8cdcd"/><circle cx="627.6" cy="447.6" r="12.1" fill="#e8cdcd"/><circle cx="661" cy="433.2" r="12.1" fill="#e8cdcd"/><path d="M514.7,254.3S416.9,49.7,476,40.6s72.8,142.1,62.6,213.7" fill="#c1c8d3"/><path d="M527.1,254.3h11l.9-3.1c3.7-29,3.7-70-1.3-108-1.5-7.6-2.6-12.3-2.6-12.3l-19.2,33.9,15.2-55.6S523,85.1,518.6,71.4A83.2,83.2,0,0,0,514,63c-4.8,3.2-16.7,13.9-16.7,13.9L486.1,42l-2.5-1.7a32.9,32.9,0,0,0-7.6.3l-2,.4C491.8,86.2,517,204.9,527.1,254.3Z" fill="#9da5b2"/><path d="M523.5,242.6l-52-86.9s47.5,28.8,57.1,58.1" fill="#9da5b2"/><polyline points="519.5 233.5 492.7 94.1 538.7 239.1" fill="#667489"/><path d="M483.1,46.2a30.7,30.7,0,0,1,21.1,4.2c-7.9-7.7-17.3-11.5-28.2-9.8-59.1,9.1,38.7,213.7,38.7,213.7h4.5C504.1,221.6,429.8,54.4,483.1,46.2Z" fill="#fff"/><path d="M512.4,255.4c-3.1-6.5-76.6-161.3-53.3-205.4a21.5,21.5,0,0,1,16.6-11.8C487,36.4,497.3,40,506.3,49c20.4,20.2,29.7,62.4,33.9,94.3,5,37.5,5.3,80.2.8,111.4l-4.9-.7c8.6-60.2-.1-168.6-33.3-201.5-7.8-7.7-16.7-10.9-26.4-9.4a16.6,16.6,0,0,0-12.8,9.2c-22.2,41.9,52.6,199.4,53.3,201Z" fill="#501b2b"/><path d="M578.3,36.1s48.9-5.7,47.8,59.1-22.7,155.7-22.7,155.7l-31.9-4.5S527.2,46.3,578.3,36.1Z" fill="#c1c8d3"/><path d="M582.1,149.4c-3.3,16.3,0,71.4,1.9,98.8l19.4,2.7s17.6-74.3,21.8-136.4c-.2-8.5-.6-13.6-.6-13.6l-28.8,65.2s-6.1-15.2,4.5-46.3c9.9-29,12.6-65.3,12.9-70H613c-1.8,3.8-18.1,38-21,19.3a74.8,74.8,0,0,0-13.7-32.9S586.7,127.4,582.1,149.4Z" fill="#9da5b2"/><path d="M583.7,45.2s22.6-2.7,36.7,16c-12.7-28.5-42.1-25.1-42.1-25.1-51.1,10.2-6.8,210.3-6.8,210.3l3.5.5C567.3,208.5,538.9,54.1,583.7,45.2Z" fill="#fff"/><path d="M579.6,239.1s17.2-79.9,9.1-146.1c0,0,21.2,95,1,132.9" fill="#667489"/><path d="M605.3,253.7l-35.8-5.1-.4-1.7c-1.4-6.4-34.8-158.9-6.7-202,4-6.2,9.2-10,15.5-11.3h.2c.7-.1,19-2.1,33.6,11.1,11.6,10.6,17.3,27.6,16.9,50.5-1.1,64.4-22.6,155.4-22.8,156.3Zm-31.7-9.5,27.8,3.9c3.3-14.3,21.2-94.8,22.2-153,.4-21.4-4.8-37.1-15.3-46.7-12.4-11.2-28.2-10-29.6-9.9-4.8,1.1-8.8,4-12.1,9.1C541.1,86.6,570,227.1,573.6,244.2Z" fill="#501b2b"/><path d="M603.4,257.8c-3.6-27.4,3-57.2,21.7-78.1,15.1-17,59.3-39.7,80.8-22.7,14.5,11.4-5.3,27.1-15,33.7-42.1,28.4-62.5,29.5-51.2,63.6" fill="#c1c8d3"/><path d="M709.2,172.8l.3-.5c0-2,0-9.4-2.6-14.4l-1-.9c-21.5-17-65.7,5.7-80.8,22.7-18.7,20.9-25.3,50.7-21.7,78.1l6.1-.6c-.2-11.7,2.4-24.3,12-33.5,20.7-20,50-24.2,56.9-24.9l.9-.6a39.7,39.7,0,0,0-35.8-5.6s30.3-16.7,41.7-20.5S707.5,172.2,709.2,172.8Z" fill="#9da5b2"/><path d="M705.9,157a27.4,27.4,0,0,0-11.5-5.2l.9.7c14.5,11.4-5.3,27.1-15,33.6-42.1,28.5-62.5,29.6-51.2,63.7l-26.3,2.5a54.3,54.3,0,0,0,.6,5.5l36.3-3.5c-11.3-34.1,9.1-35.2,51.2-63.6C700.6,184.1,720.4,168.4,705.9,157Z" fill="#fff"/><path d="M600.9,258.1c-3.9-30.1,4.4-60,22.3-80,16.1-18.1,61.4-41,84.3-23q6.3,5,6,11.7c-.3,9.8-11.7,19.5-21.2,26s-17.1,10.9-24.1,15.2c-25,15-34.4,20.7-26.1,45.6l-4.7,1.5c-9.6-28.6,3-36.3,28.2-51.4,7-4.2,14.9-9,23.9-15.1,11.9-8,18.8-16.1,19-22,.2-2.8-1.2-5.3-4.1-7.6-19.8-15.6-62.1,5.2-77.4,22.4-17,19-24.9,47.4-21.2,76Z" fill="#501b2b"/><path d="M560.2,244.1S485.1,125.9,511.3,69s56.8,38.7,63.6,73.9L567,157.7l10.2,3.4s14.8,51.2,0,88.7" fill="#ede4df"/><path d="M577.2,249.8c5.4-13.6,6.8-29,6.5-43.2v-.4l-19,2.3,15.9-21.2-1-16.2c-.8-3.6-1.4-6.3-1.9-8L567,157.7l-10.6,8.4,12.1-47L556.8,84.6c-.7-1.7-1.5-3.3-2.3-4.9L545,103.9l-3-44.7-15.2-7.6a10.8,10.8,0,0,0-3.2,1.3c-3.8,56.8,39.2,170.4,49,195.4Z" fill="#dbc4b9"/><path d="M563.9,227.9S515,90,526.8,51.6L567,228.5" fill="#af8879"/><path d="M571.5,246.4s-75-118.2-48.9-175.1c4.7-10,9.4-15.3,14.2-17-8.4-6-17.2-3.4-25.5,14.7-26.2,56.9,48.9,175.1,48.9,175.1l17,5.7a6.9,6.9,0,0,0,.5-1.3Z" fill="#fff"/><path d="M579.5,250.7l-4.6-1.8c13-33.1,2.3-77.8.2-85.8l-11.7-4,8.9-16.6C566.1,111.4,547,56,529.9,53.9c-5.6-.6-11.1,4.8-16.4,16.2-25.2,54.9,48,171.5,48.8,172.7l-4.3,2.7a534.3,534.3,0,0,1-34.4-66.6C502.8,129.5,497.9,92.2,509,68c6.3-13.6,13.5-20,21.5-19,24.2,2.9,43.4,75.6,46.9,93.5l.2.8-7,13,8.6,2.9.4,1.2C580.2,162.6,594.5,212.8,579.5,250.7Z" fill="#501b2b"/><path d="M463.5,257.8S437.4,89.5,404.4,81.5s-39.8,27.3-10.2,95.5l17-2.2-11.3,13.6s34.1,68.2,40.9,83" fill="#c1c8d3"/><path d="M463.5,257.8S437.4,89.5,404.4,81.5s-39.8,27.3-10.2,95.5l17-2.2-11.3,13.6s34.1,68.2,40.9,83" fill="#c1c8d3"/><path d="M404.4,81.5c-7.6-1.8-13.9-1.3-18.6,1.4l6.9,18L389,164.6a30.5,30.5,0,0,1,1.3,3.2l27,3.6s25.4,43.9,28.4,87.9a54.4,54.4,0,0,0,1.2,8.4l16.6-9.9S437.4,89.5,404.4,81.5Z" fill="#9da5b2"/><path d="M438.9,279.7s-14.4-108.3-49.3-178.8c0,0,59.1,82.6,57.6,171.3" fill="#667489"/><path d="M438.5,272.4c-6.7-14.5-40.5-82.2-40.9-82.9l-.7-1.4,8.3-10-12.6,1.7-.7-1.8c-19.9-45.9-24.3-78.9-12.5-93,3.8-4.6,11.4-9.3,25.6-5.9s29.2,34,43.8,92.9c10.5,42.7,17.1,85,17.2,85.4l-4.9.7C453.9,211.8,429.5,90.2,403.8,84c-9.4-2.3-16.3-.9-20.6,4.2-10.2,12.2-5.7,43.6,12.5,86.1l21.6-2.9-14.5,17.4c5,10,34.1,68.1,40.3,81.6Z" fill="#501b2b"/><path d="M409,270.3s-28.5-91-101.2-76.2-26.2,71.6,20.4,63.7,61.4,6.8,67.1,29.5" fill="#c1c8d3"/><path d="M340.4,251.7c-39.1,6.7-78.2-32.2-46.9-53.6-51.5,18.9-8.4,67,34.7,59.7,46.7-8,61.4,6.8,67.1,29.5l10.1-12.6C398.5,255.8,382.3,244.5,340.4,251.7Z" fill="#fff"/><path d="M295.7,222.9s30.3,0,46.9,21.2c3,3.7,6.1,7.6,9.4,11.5,28.3.3,38.7,13.4,43.3,31.7l13.7-17a99.9,99.9,0,0,0-3.8-9.8C384.1,236.6,345.3,205.7,295.7,222.9Z" fill="#9da5b2"/><path d="M392.9,287.9c-4.8-19.2-15.9-35.9-64.2-27.7-29.3,5-57.2-14-60.8-33.1-1.5-7.9-.6-27.3,39.4-35.5,30.7-6.2,58.5,5.4,80.3,33.5a157,157,0,0,1,23.7,44.4l-4.7,1.5c-.1-.2-7.2-22.6-23-42.9-20.9-26.9-46.2-37.5-75.3-31.6-25.1,5.1-38.1,15.9-35.5,29.7,3.1,16.8,29.1,33.5,55,29.1,22.5-3.8,39-2.7,50.5,3.5,9.8,5.4,16,14.2,19.4,27.9Z" fill="#501b2b"/><path d="M601.6,258.7s38.5-49.9,84.4-135.4-26.1-82.9-70.2,26L571.7,258.2" fill="#ede4df"/><path d="M622.1,155.6c25.9-64,61.4-91.3,77-85.6-8.7-20.7-52.7,3.7-83.3,79.3L571.7,258.2l8.8.2C584.5,248.5,594.9,222.7,622.1,155.6Z" fill="#fff"/><path d="M650.7,133.5l7-3c-15.6,20.2-29.6,41.8-38.9,65.5-3.4,8.5-6.2,17.3-10.5,25.4-3.5,6.4-8,12.8-7.6,20.1,9.5-16.7,26.3-27.5,40.6-40.2,1.5-1.3,3.1-3.2,2.4-5.1a13.9,13.9,0,0,0-8.2-1.7c1.5-5.3,5.4-9.6,9.1-13.8a201.7,201.7,0,0,0,25.8-38.2,49.7,49.7,0,0,1-18.3,14.4l16.2-19c8.8-10.4,17.7-20.9,23.5-33.3a58.7,58.7,0,0,0,5.6-24.7,43.2,43.2,0,0,0-.5-6.2c-.2-1.4-.2-4-1.6-4.7-3.2-1.7-4.6,3.6-5.4,5.4a101.6,101.6,0,0,1-11.7,19.2c-4.6,6.2-9.5,12.1-14.1,18.2a109.2,109.2,0,0,0-12.3,19.1A20.3,20.3,0,0,0,650.7,133.5Z" fill="#dbc4b9"/><path d="M603.5,260.3l-3.9-3.1c.4-.5,39-50.7,84.2-135.1,19.6-36.6,14.2-49.8,12.1-52.9s-5-4.1-9.1-3.7c-14.4,1.5-44.7,25.3-68.7,84.7L574,259.1l-4.6-1.8,44.1-109c23.2-57.5,54.1-85.8,72.8-87.7,5.9-.6,10.8,1.4,13.7,5.8,6.8,10.1,2.5,31.3-11.8,58.1C642.8,209.2,603.9,259.8,603.5,260.3Z" fill="#501b2b"/><polyline points="604.9 232.5 694.3 64.2 606.9 239.6" fill="#af8879"/><path d="M505.6,240.7S481.7,59.9,406.7,67.9s15.9,62.5,33,101.2S479.4,260,479.4,260" fill="#ede4df"/><path d="M393.9,70.1a31.9,31.9,0,0,0-4,1.2c17.4,19.8,72.2,83.1,81.1,108.1,7.9,22.2,17.1,55.4,21.4,71.1l9.2-6.8-4.1-45.9c-.6-2.3-1.1-4.7-1.7-7.2l-9.2,10.1s5.6-18.2,3.6-29.3S471,122.3,471,122.3l-8.1,27.8s-.5-40.4-4.6-51.5c-3-8.4-23.1-22.3-32.7-28.6l-5.4-1.5L416.9,90A87.9,87.9,0,0,0,393.9,70.1Z" fill="#dbc4b9"/><path d="M486.1,241.1S467.4,168.8,427,113.8c0,0,53.1,35.3,67.7,120.2" fill="#af8879"/><path d="M452.5,172.1c-17-38.6-108-93.2-32.9-101.2a43.9,43.9,0,0,1,8.1-.1,43.4,43.4,0,0,0-21-2.9c-75,8,15.9,62.5,33,101.2S479.4,260,479.4,260l8.8-6.4C480.9,236.7,465.1,200.7,452.5,172.1Z" fill="#fff"/><path d="M477.1,261c-.2-.5-22.9-52.7-39.7-90.9-5.4-12.2-18.6-26.3-31.4-39.9-18.1-19.3-35.1-37.4-30.2-50.5,2.8-7.7,12.9-12.4,30.6-14.3S441,71.8,455.7,90c11.5,14.2,21.9,34.6,30.9,60.5,15.3,43.9,21.4,89.4,21.5,89.9l-5,.6c-.2-1.8-24.4-178.2-96.2-170.6-15.4,1.6-24.3,5.3-26.4,11-3.8,10.2,12.9,28.1,29.1,45.3,13.1,14,26.6,28.4,32.3,41.4,16.9,38.2,39.6,90.4,39.8,90.9Z" fill="#501b2b"/><path d="M415.8,287.3S281.6,183.9,306.6,145.2s75.1-4.5,103.5,47.8,28.8,60.9,28.8,60.9" fill="#ede4df"/><path d="M438.9,253.9c-1.5-4.8-3.2-9.3-4.9-13.6s-5.6-12.2-10.4-21.6c-4.2-7.8-7.4-12.5-7.4-12.5l-11.4,24.3s7.6-28.1-6.1-52.3-42.4-40.9-42.4-40.9l3,33.3-38.2-38.9a33.6,33.6,0,0,0-9.2,6.8c34.6,32.3,90.6,119.4,106.7,144.8Z" fill="#dbc4b9"/><path d="M423,301s-46.3-94.8-81.1-128.9c0,0,33.3,28.1,53.8,62.2l-1.5-40.2s9.8,33.3,21.2,62.1,16.7,34.9,16.7,34.9" fill="#af8879"/><path d="M318,147.5c7.9-12.2,18.3-17.2,29.8-16.6-15.8-5.3-30.7-1.9-41.2,14.3-25,38.7,109.2,142.1,109.2,142.1l3-4.4C389.9,259.5,296.8,180.2,318,147.5Z" fill="#fff"/><path d="M414.3,289.3c-.4-.3-34.1-26.3-64.2-56.8-41.3-41.7-56.7-71.5-45.6-88.6,7.9-12.1,18.7-18.3,31.5-17.8,24.8,1,55.5,27.4,76.3,65.7,27.9,51.3,29.1,61,29.1,62h-2.5l-2.5.2c0-.4-1.4-10.1-28.5-59.9-20-36.9-49-62.2-72.1-63.1-11-.4-20.2,4.8-27.1,15.5C289.3,176.7,380.5,257,417.3,285.3Z" fill="#501b2b"/><path d="M382.8,326s106.9-108,271.7-39.8c0,0-1.1-35.3-25-50,0,0-101.2-62.6-234.2,31.8C395.3,268,378.3,299.8,382.8,326Z" fill="#ac1f27"/><path d="M496.2,221.4l-28.5,55.2a242.7,242.7,0,0,1,68.6-12.8Z" fill="#ffec7a"/><path d="M405,308.1a249.9,249.9,0,0,1,59.7-30.5l-38-29.4-1.1.6Z" fill="#ffec7a"/><path d="M606.9,270.7a309.4,309.4,0,0,1,47.6,15.5s-1-31.6-21.4-47.5Z" fill="#ffec7a"/><path d="M567.5,217.8l-27.2,45.9a260.4,260.4,0,0,1,65.4,6.8Z" fill="#ffec7a"/><path d="M382.8,326s106.9-108,271.7-39.8c0,0-1.1-35.3-25-50,0,0-101.2-62.6-234.2,31.8C395.3,268,378.3,299.8,382.8,326Z" fill="none" stroke="#501b2b" stroke-miterlimit="10" stroke-width="4"/></svg>