<svg xmlns="http://www.w3.org/2000/svg" xmlns:xlink="http://www.w3.org/1999/xlink" width="1200" height="1200" viewBox="0 0 1200 1200"><defs><clipPath id="a"><path d="M372.2,440c2.9,2.2,5.7,4.5,8.7,6.6l8.8,6.4,4.5,3.1,4.4,3.2c5.9,4.2,11.8,8.4,17.9,12.5a197.6,197.6,0,0,0,18.7,11.3c12.9,6.9,28.3,14.8,42,19.7,48.5,15.7,87.7,14.7,129.2-.6,20.1-7.5,34.6-19.6,49.7-34.6,2.5-2.5,4.9-5.2,7.4-7.8s4.7-5.4,7.1-8.1l5,4.3c3.3-15.9,3.8-36.6-6.5-58.1-21.8-45.3-16.3-53.5-13.6-78s-18.2-63.6-56.3-79.9-110-26.7-162.1,18.4-63.9,114.1-66.6,142.3c-1.2,12.3-2.1,25.2-2.6,35.7Z" fill="#7a497a"/></clipPath><clipPath id="b"><path d="M541.7,390.1s29.1-59.3-10.9-85.4-80.5,10.3-89.5,41.8,3,47.8,3,47.8S500,374.9,541.7,390.1Z" fill="#fff"/></clipPath><clipPath id="c"><path d="M594.8,382.7a12.2,12.2,0,0,1-2.9-7.1c-1.7-11.5-1.9-24.4,4-34.8,14.5-25.8,47.2-15.5,52,12.1l3.1,19s-6.1,17.3-24.6,17.9a68.4,68.4,0,0,1-17.4-2c-4.6-1-10.7-1.4-14.2-5Z" fill="#fff"/></clipPath></defs><path d="M372.2,440c2.9,2.2,5.7,4.5,8.7,6.6l8.8,6.4,4.5,3.1,4.4,3.2c5.9,4.2,11.8,8.4,17.9,12.5a197.6,197.6,0,0,0,18.7,11.3c12.9,6.9,28.3,14.8,42,19.7,48.5,15.7,87.7,14.7,129.2-.6,20.1-7.5,34.6-19.6,49.7-34.6,2.5-2.5,4.9-5.2,7.4-7.8s4.7-5.4,7.1-8.1l5,4.3c3.3-15.9,3.8-36.6-6.5-58.1-21.8-45.3-16.3-53.5-13.6-78s-18.2-63.6-56.3-79.9-110-26.7-162.1,18.4-63.9,114.1-66.6,142.3c-1.2,12.3-2.1,25.2-2.6,35.7Z" fill="#7a497a"/><g clip-path="url(#a)"><path d="M470.7,462.4c25.6,10.6,52.3,20.9,80,19.9,22.7-.8,44.5-9.2,65-19a477.9,477.9,0,0,0,103.6-66.9c4.1,34.9-11,70.2-35,95.8s-56,42.5-89,54.4a384.4,384.4,0,0,1-134.4,22.8c-38.9-.4-81.3-8.7-106-38.8-17.3-20.9-53.4-129.8-12.7-137,18-3.3,39.7,16.9,52.5,26.6C418.4,438.1,443.3,451,470.7,462.4Z" fill="#703667" opacity="0.6"/></g><path d="M581.7,379.7c-.9,0-2.3,1.4-3,2s-3.8,3.1-5.6,4.8A96.5,96.5,0,0,0,562.6,399c-5.1,7-9.8,15-9.2,23.6.3,4.6,2,8.9,3.7,13.1l4.2,10.1-7.6-.2a11,11,0,0,1-2.6-.2c-3-.8-4.7-3.9-6.1-6.7-.4,3-.9,6-1.3,9l-8.2-1-.6-19.5c-2.7,7.9-5.3,15.7-7.9,23.6a19.4,19.4,0,0,1-3.6.3l-3.6.2-7.4-.2-3.7-.4c-1-.1-2.6,0-3.5-.6s-.3-.9.1-1.5a9.7,9.7,0,0,0,1.4-2.9l3.6-8.7s-40.9,4.5-70.8-10-50.9-60.8-46.3-102.6,66.2-107.1,156.1-92.6S646.4,279,651,308.1s-1,36.3-1,36.3,1,29,10,37.2,9.1,16.3,9.1,16.3c0,5.7-.4,10.6-3.6,15.6-9.2,14.5-26.8,16.3-42.1,13-3.9-.8-15.6-2.2-17.8-5.9l3.7,6.2a17.5,17.5,0,0,1,1.6,2.7,12.1,12.1,0,0,0,.5,1.8,61.2,61.2,0,0,0,3.1,5.6,1.1,1.1,0,0,1,.3.8c-.1.6-.9.8-1.6.9a26.3,26.3,0,0,0-13.4,5.1,68.8,68.8,0,0,0-5.2-12.2,50.9,50.9,0,0,0-4.2,10.6l-12.7,1.4a133.4,133.4,0,0,0,1.9-26,16.3,16.3,0,0,0,12.3-5,15.9,15.9,0,0,0,4.6-11.1,7.1,7.1,0,0,0,.1-1.4c0-1.2-.8-2.3-1.2-3.3a47.6,47.6,0,0,0-6.9-11.2,34.5,34.5,0,0,0-5.6-5.2A2,2,0,0,0,581.7,379.7Z" fill="#e8cdcd"/><path d="M362.1,437.3c2.9-25.7,5.5-51.7,11.1-77.5a256.6,256.6,0,0,1,10.9-38,175.8,175.8,0,0,1,18-35.7A93,93,0,0,1,408,278a95.1,95.1,0,0,1,6.7-7.4,156.8,156.8,0,0,1,15.2-13.1l7.9-6,4-2.8,4.1-2.8a163.4,163.4,0,0,1,17.4-9.6,164.4,164.4,0,0,1,97.4-13.5,163.3,163.3,0,0,1,19.6,4.4,158.5,158.5,0,0,1,19,6.7,98.1,98.1,0,0,1,18.1,9.6,96.6,96.6,0,0,1,28.8,29.2,88.1,88.1,0,0,1,13.3,38.9,67.2,67.2,0,0,1-1.6,20.9l-.7,2.5-.7,2.2-.5,2.2-.4,2.2a65.4,65.4,0,0,0-.9,8.9,64.6,64.6,0,0,0,2.5,18,67.4,67.4,0,0,0,3,8.6l2.1,4.1,1.2,1.8,1.5,2c1.8,2.7,3.7,5.5,5.4,8.3s1.6,2.9,2.5,4.4,1.5,3,2.4,4.4l1.3,2.1a16.4,16.4,0,0,1,1.4,2.2,25.3,25.3,0,0,1,1.3,2.2,24.4,24.4,0,0,1,1,2.4,67.2,67.2,0,0,1,2.8,10,57,57,0,0,1,.1,21,52.7,52.7,0,0,1-5.4,15l-1.4,2.4-.8,1.1-.4.6-.3.3-.3.4-7.4-6.1.5-.7.6-.8c.3-.6.7-1.2,1-1.9a35.4,35.4,0,0,0,1.9-3.9,49.8,49.8,0,0,0,2.6-8.3,51.8,51.8,0,0,0,1.2-8.8,53.2,53.2,0,0,0-.5-8.9,66.8,66.8,0,0,0-1.8-8.9c-.9-2.9-1.2-6.1-2.2-9.1a56.3,56.3,0,0,0-4.6-8.3,82.6,82.6,0,0,0-5.6-7.6l-1.6-1.9a19.9,19.9,0,0,1-1.6-2,35.9,35.9,0,0,1-2.8-4.4,79,79,0,0,1-4.4-9.3,63.6,63.6,0,0,1-3.9-20.3,71.7,71.7,0,0,1,.7-10.4,20.2,20.2,0,0,1,.4-2.6l.5-2.6.6-2.5.5-2.2a52.5,52.5,0,0,0,.7-17.7,76.8,76.8,0,0,0-12.8-33.7c-1.6-2.5-3.5-4.9-5.4-7.3s-4-4.6-6.2-6.7a98.5,98.5,0,0,0-14.2-11.4,103.9,103.9,0,0,0-16.2-8.5c-5.8-2.4-11.7-4.6-17.6-6.4a187.9,187.9,0,0,0-18.3-4.5,166.7,166.7,0,0,0-18.6-2.7,170.7,170.7,0,0,0-18.9-.8,154.7,154.7,0,0,0-37.5,4.9,147.2,147.2,0,0,0-18,6.2,117.2,117.2,0,0,0-16.9,8.7,90.3,90.3,0,0,0-15.3,11.3A106.6,106.6,0,0,0,420.9,276c-3.7,5-7.3,10.1-10.8,15.4a176.7,176.7,0,0,0-16.4,33.9,285.9,285.9,0,0,0-10.2,36.8c-5.4,25-8.3,50.6-11.9,76.4Z" fill="#501b2b"/><path d="M541.7,390.1s29.1-59.3-10.9-85.4-80.5,10.3-89.5,41.8,3,47.8,3,47.8S500,374.9,541.7,390.1Z" fill="#fff"/><g clip-path="url(#b)"><path d="M527.4,364.7c2.9,1.1,5.6,2.7,8.6,3.5,8,2.2,16.7-1.7,22.5-7.7s9.2-13.7,12.6-21.3c13.9,30.3-2.6,67.5-28.6,88.3-19.1,15.4-43.6,24.5-68.1,23.4s-48.8-12.7-63.4-32.4c-4.7-6.3-8.4-13.4-9.2-21.2-1.7-16.1,7-44.1,16.6-57.2,3.3-4.6,8-14.9,15.8-13.4,9.4,1.8,2.3,7.4,5.8,13.6,9.8,17.2,10,27.9,33.7,28.8C491.8,369.7,509.1,357.7,527.4,364.7Z" fill="#7e60a1" opacity="0.3"/></g><path d="M441.3,346.5l-.6,6.2c-.1,2-.3,4-.4,6.1s-.1,4,.1,6,0,2,.1,3l.3,2.9a72.1,72.1,0,0,0,2.4,11.4,20,20,0,0,0,1,2.6l.5,1.3.6,1.3a2.7,2.7,0,0,0,.6,1.2l.6,1.2a7.5,7.5,0,0,0,.7,1.2l.3.5.3.3-4.9-1.5c4.1-1.5,8-2.8,12.1-3.9s8.2-2,12.3-2.9a163.6,163.6,0,0,1,25.2-3c4.2-.1,8.5-.1,12.7.1s8.5.8,12.6,1.5a89.5,89.5,0,0,1,12.4,3,65.9,65.9,0,0,1,11.5,5.1c-4.1-.7-8.2-1.3-12.2-1.7s-8.2-.6-12.2-.6-8.1,0-12.1.3-8.1.5-12.1,1c-8,.9-16,2.1-23.9,3.7l-11.9,2.6c-3.9.9-7.9,1.9-11.6,3l-3.2,1-1.7-2.5-.6-.9-.4-.9-.8-1.5-.7-1.6-.6-1.6a14.2,14.2,0,0,1-.5-1.6l-.5-1.6c-.3-1.1-.5-2.2-.7-3.3a51.8,51.8,0,0,1-.9-13l.2-3.2c.1-1.1.3-2.1.4-3.2a61.9,61.9,0,0,1,1.3-6.2c.2-1,.6-2,.9-3l1-3A58.9,58.9,0,0,1,441.3,346.5Z" fill="#501b2b"/><path d="M439,343.7A99.6,99.6,0,0,1,449.2,323c11.4-17.4,30-27.5,50.6-28.8,15.5-1,26.7,4.1,38.1,14.4a56.6,56.6,0,0,1,12.3,15.8c11.8,23,.3,40.5.3,40.6,2.4-3.7,1.3-12.5.9-16.5a52.9,52.9,0,0,0-14.8-32.8c-20-20.4-50.4-19.8-71.2-.5-7.8,7.2-13.8,16.2-18.7,25.6s-7.5,16.7-8.1,25.7c-.3,4.8,1.9,10.8-2.3,13.3.6-.4-.9-12.6-.8-14.2.5-5,.2-10,1.4-14.9Z" fill="#501b2b"/><path d="M594.8,382.7a12.2,12.2,0,0,1-2.9-7.1c-1.7-11.5-1.9-24.4,4-34.8,14.5-25.8,47.2-15.5,52,12.1l3.1,19s-6.1,17.3-24.6,17.9a68.4,68.4,0,0,1-17.4-2c-4.6-1-10.7-1.4-14.2-5Z" fill="#fff"/><g clip-path="url(#c)"><path d="M637.6,363.6c7-6.3,11.7-14.6,16.3-22.8,8.4,5.1,13.2,15.2,13.3,25s-3.9,19.5-9.8,27.5c-17.1,22.7-51.1,30.8-76.6,18.3-4.6-2.3-9-5.2-12-9.3-9-12.3-8.5-67.5,15.8-62.1,9.8,2.1,8.7,18.8,15.9,25.4C611.8,375.7,626.8,373.5,637.6,363.6Z" fill="#7e60a1" opacity="0.3"/></g><path d="M594.8,382.8c-2-1.2-3.3-3.5-4.1-5.7a33.3,33.3,0,0,1-1.2-6.9,56.4,56.4,0,0,1,.6-13.6,65.9,65.9,0,0,1,3.2-13.1,37.5,37.5,0,0,1,6.6-11.9,124.2,124.2,0,0,0-3,12.8q-1.2,6.5-2.1,12.9c-.6,4.3-1.1,8.6-1.3,12.9-.1,1.1-.1,2.1-.1,3.2v3.2A15.5,15.5,0,0,0,594.8,382.8Z" fill="#501b2b"/><path d="M651,371.9a26.3,26.3,0,0,1-8.7,14.3,25.5,25.5,0,0,1-7.5,4.4,33.9,33.9,0,0,1-4.3,1.1,16.6,16.6,0,0,1-2.2.3l-2.2.2a58.4,58.4,0,0,1-16.6-2.3l-1.9-.6-1.9-.5-4-1.3a18.8,18.8,0,0,1-3.8-1.8,12.3,12.3,0,0,1-3.1-2.9,18.5,18.5,0,0,0,7.5,2.5l4,.4,2,.2,2.1.3a91.1,91.1,0,0,0,15.6,1.2l1.9-.2h1.8c1.2-.3,2.5-.4,3.6-.8a12.7,12.7,0,0,0,1.8-.6l1.7-.7,1.7-.9.8-.4.8-.5A36.8,36.8,0,0,0,651,371.9Z" fill="#501b2b"/><path d="M649.4,353.8s-9.6-28.8-32.6-25.2-26.1,30.9-26.1,30.9.6-28.7,17.3-34.8S642.5,323.8,649.4,353.8Z" fill="#501b2b"/></svg>